%TF.GenerationSoftware,KiCad,Pcbnew,8.0.4*%
%TF.CreationDate,2025-01-14T13:43:07+00:00*%
%TF.ProjectId,AtomV5Board,41746f6d-5635-4426-9f61-72642e6b6963,rev?*%
%TF.SameCoordinates,Original*%
%TF.FileFunction,Profile,NP*%
%FSLAX46Y46*%
G04 Gerber Fmt 4.6, Leading zero omitted, Abs format (unit mm)*
G04 Created by KiCad (PCBNEW 8.0.4) date 2025-01-14 13:43:07*
%MOMM*%
%LPD*%
G01*
G04 APERTURE LIST*
%TA.AperFunction,Profile*%
%ADD10C,0.050000*%
%TD*%
G04 APERTURE END LIST*
D10*
X51990000Y-161912500D02*
G75*
G02*
X41990000Y-161912500I-5000000J0D01*
G01*
X41990000Y-161912500D02*
G75*
G02*
X51990000Y-161912500I5000000J0D01*
G01*
X24995000Y-238920000D02*
G75*
G02*
X23090000Y-237015000I0J1905000D01*
G01*
X44590000Y-23920000D02*
X44590000Y-28920000D01*
X205590000Y-28920000D02*
X209590000Y-28920000D01*
X23090000Y-123420000D02*
X23090000Y-25825000D01*
X48590000Y-23920000D02*
X48590000Y-28920000D01*
X392590000Y-237015000D02*
X392590000Y-127420000D01*
X65790000Y-230520000D02*
G75*
G02*
X62590000Y-230520000I-1600000J0D01*
G01*
X62590000Y-230520000D02*
G75*
G02*
X65790000Y-230520000I1600000J0D01*
G01*
X28090000Y-123420000D02*
X23090000Y-123420000D01*
X28090000Y-127420000D02*
X28090000Y-123420000D01*
X387590000Y-123420000D02*
X392590000Y-123420000D01*
X209590000Y-28920000D02*
X209590000Y-23920000D01*
X23090000Y-25825000D02*
G75*
G02*
X24995000Y-23920000I1905000J0D01*
G01*
X205590000Y-23920000D02*
X205590000Y-28920000D01*
X209590000Y-23920000D02*
X297815000Y-23920000D01*
X48590000Y-23920000D02*
X205590000Y-23920000D01*
X392590000Y-237015000D02*
G75*
G02*
X390685000Y-238920000I-1905000J0D01*
G01*
X390685000Y-23920000D02*
G75*
G02*
X392590000Y-25825000I0J-1905000D01*
G01*
X24995000Y-23920000D02*
X44590000Y-23920000D01*
X48713000Y-45520000D02*
G75*
G02*
X45013000Y-45520000I-1850000J0D01*
G01*
X45013000Y-45520000D02*
G75*
G02*
X48713000Y-45520000I1850000J0D01*
G01*
X41490000Y-125730000D02*
G75*
G02*
X35490000Y-125730000I-3000000J0D01*
G01*
X35490000Y-125730000D02*
G75*
G02*
X41490000Y-125730000I3000000J0D01*
G01*
X392590000Y-127420000D02*
X387590000Y-127420000D01*
X390685000Y-23920000D02*
X370590000Y-23920000D01*
X370590000Y-23920000D02*
X370590000Y-28920000D01*
X377190000Y-166920000D02*
G75*
G02*
X373990000Y-166920000I-1600000J0D01*
G01*
X373990000Y-166920000D02*
G75*
G02*
X377190000Y-166920000I1600000J0D01*
G01*
X387590000Y-127420000D02*
X387590000Y-123420000D01*
X23090000Y-237015000D02*
X23090000Y-127420000D01*
X23090000Y-127420000D02*
X28090000Y-127420000D01*
X48590000Y-211912500D02*
G75*
G02*
X44890000Y-211912500I-1850000J0D01*
G01*
X44890000Y-211912500D02*
G75*
G02*
X48590000Y-211912500I1850000J0D01*
G01*
X24995000Y-238920000D02*
X390685000Y-238920000D01*
X372200000Y-125570000D02*
G75*
G02*
X366200000Y-125570000I-3000000J0D01*
G01*
X366200000Y-125570000D02*
G75*
G02*
X372200000Y-125570000I3000000J0D01*
G01*
X44590000Y-28920000D02*
X48590000Y-28920000D01*
X392590000Y-123420000D02*
X392590000Y-25825000D01*
X370590000Y-28920000D02*
X366590000Y-28920000D01*
X297815000Y-23920000D02*
X366590000Y-23920000D01*
X371340000Y-44920000D02*
G75*
G02*
X366440000Y-44920000I-2450000J0D01*
G01*
X366440000Y-44920000D02*
G75*
G02*
X371340000Y-44920000I2450000J0D01*
G01*
X381290000Y-211912500D02*
G75*
G02*
X377590000Y-211912500I-1850000J0D01*
G01*
X377590000Y-211912500D02*
G75*
G02*
X381290000Y-211912500I1850000J0D01*
G01*
X377190000Y-230520000D02*
G75*
G02*
X373990000Y-230520000I-1600000J0D01*
G01*
X373990000Y-230520000D02*
G75*
G02*
X377190000Y-230520000I1600000J0D01*
G01*
X366590000Y-23920000D02*
X366590000Y-28920000D01*
M02*
