M48
; DRILL file {KiCad 8.0.4} date 2025-01-14T13:43:09+0000
; FORMAT={-:-/ absolute / inch / decimal}
; #@! TF.CreationDate,2025-01-14T13:43:09+00:00
; #@! TF.GenerationSoftware,Kicad,Pcbnew,8.0.4
; #@! TF.FileFunction,Plated,1,2,PTH
FMAT,2
INCH
; #@! TA.AperFunction,Plated,PTH,ViaDrill
T1C0.0118
; #@! TA.AperFunction,Plated,PTH,ComponentDrill
T2C0.0197
; #@! TA.AperFunction,Plated,PTH,ComponentDrill
T3C0.0276
; #@! TA.AperFunction,Plated,PTH,ComponentDrill
T4C0.0315
; #@! TA.AperFunction,Plated,PTH,ComponentDrill
T5C0.0394
; #@! TA.AperFunction,Plated,PTH,ComponentDrill
T6C0.0591
; #@! TA.AperFunction,Plated,PTH,ComponentDrill
T7C0.0787
; #@! TA.AperFunction,Plated,PTH,ComponentDrill
T8C0.1260
%
G90
G05
T1
X1.05Y-1.675
X1.075Y-1.7
X1.075Y-4.6
X1.1Y-1.725
X1.125Y-1.75
X1.15Y-1.775
X1.175Y-1.8
X1.275Y-2.15
X1.3Y-2.175
X1.4Y-4.6
X1.45Y-1.8
X1.475Y-4.45
X1.5Y-2.775
X1.5Y-3.275
X1.5Y-4.35
X1.525Y-4.25
X1.7Y-2.65
X1.75Y-3.275
X1.8Y-2.575
X1.8Y-2.725
X1.85Y-2.35
X1.85Y-3.35
X1.9Y-2.575
X1.95Y-2.35
X2.0Y-2.6
X2.05Y-2.35
X2.1Y-2.625
X2.15Y-1.6
X2.15Y-2.35
X2.15Y-4.4
X2.15Y-4.7
X2.175Y-4.35
X2.175Y-4.55
X2.175Y-4.725
X2.2Y-2.65
X2.2Y-4.25
X2.2Y-4.525
X2.2Y-4.75
X2.225Y-4.15
X2.225Y-4.55
X2.25Y-1.6
X2.25Y-2.35
X2.25Y-4.05
X2.25Y-4.525
X2.275Y-3.95
X2.275Y-4.55
X2.3Y-3.85
X2.3Y-4.525
X2.325Y-4.55
X2.35Y-2.35
X2.35Y-5.2
X2.35Y-5.25
X2.35Y-5.525
X2.45Y-2.35
X2.525Y-5.2
X2.525Y-5.3
X2.525Y-5.425
X2.55Y-2.35
X2.65Y-5.325
X2.7Y-1.35
X2.725Y-3.325
X2.775Y-3.375
X2.8Y-3.45
X2.875Y-2.875
X2.95Y-3.55
X2.975Y-2.925
X3.025Y-3.325
X3.075Y-1.875
X3.075Y-2.975
X3.075Y-5.5
X3.1Y-4.525
X3.1Y-5.475
X3.1Y-5.55
X3.125Y-5.525
X3.15Y-5.125
X3.15Y-5.625
X3.175Y-4.05
X3.175Y-4.875
X3.175Y-5.225
X3.175Y-5.65
X3.2Y-1.825
X3.2Y-2.325
X3.2Y-4.675
X3.2Y-5.4
X3.225Y-5.625
X3.25Y-3.65
X3.275Y-3.75
X3.3Y-2.325
X3.3Y-3.85
X3.325Y-3.95
X3.35Y-2.4
X3.35Y-3.6
X3.4Y-5.65
X3.425Y-4.7
X3.45Y-2.425
X3.45Y-4.725
X3.475Y-2.725
X3.475Y-4.75
X3.525Y-3.55
X3.55Y-4.5
X3.55Y-4.625
X3.575Y-3.1
X3.6Y-3.6
X3.65Y-4.65
X3.65Y-4.875
X3.7Y-3.65
X3.75Y-2.9
X3.75Y-3.375
X3.75Y-3.725
X3.75Y-4.9
X3.75Y-4.95
X3.76Y-6.28
X3.775Y-4.625
X3.8Y-2.9
X3.8Y-4.925
X3.9Y-5.55
X4.0Y-2.675
X4.0Y-2.9
X4.0Y-3.1
X4.0Y-5.575
X4.05Y-3.15
X4.05Y-5.4
X4.1Y-3.725
X4.1Y-5.6
X4.125Y-2.125
X4.15Y-4.7
X4.15Y-5.425
X4.175Y-1.75
X4.2Y-1.825
X4.2Y-5.525
X4.225Y-2.675
X4.25Y-1.875
X4.25Y-1.925
X4.25Y-3.7
X4.25Y-4.175
X4.25Y-5.05
X4.25Y-5.375
X4.3Y-3.05
X4.3Y-5.475
X4.325Y-1.75
X4.325Y-1.8
X4.35Y-1.575
X4.35Y-3.4
X4.35Y-4.0
X4.35Y-4.5
X4.4Y-1.575
X4.4Y-4.25
X4.4Y-5.5
X4.45Y-1.575
X4.475Y-4.925
X4.5Y-4.95
X4.5Y-5.325
X4.55Y-3.55
X4.55Y-3.95
X4.55Y-4.75
X4.575Y-4.7
X4.575Y-6.375
X4.6Y-4.6
X4.65Y-1.8
X4.675Y-3.75
X4.7Y-8.62
X4.775Y-1.75
X4.8Y-3.925
X4.825Y-1.75
X4.9Y-5.1
X5.025Y-7.76
X5.05Y-1.725
X5.075Y-3.25
X5.1Y-3.15
X5.1Y-4.25
X5.125Y-3.075
X5.125Y-4.175
X5.15Y-1.7
X5.15Y-3.775
X5.15Y-5.325
X5.175Y-1.85
X5.25Y-3.625
X5.2598Y-7.425
X5.325Y-1.8
X5.325Y-2.275
X5.325Y-6.325
X5.35Y-1.275
X5.35Y-1.475
X5.375Y-1.125
X5.4Y-1.3
X5.425Y-1.325
X5.425Y-2.525
X5.425Y-3.775
X5.45Y-1.525
X5.45Y-2.1
X5.45Y-2.55
X5.45Y-2.675
X5.5Y-1.675
X5.5Y-5.425
X5.5Y-6.96
X5.575Y-2.35
X5.575Y-2.625
X5.575Y-2.95
X5.575Y-4.05
X5.6Y-2.225
X5.65Y-2.7
X5.65Y-4.65
X5.65Y-8.66
X5.675Y-3.55
X5.7Y-2.05
X5.725Y-3.45
X5.725Y-4.55
X5.75Y-2.05
X5.75Y-3.825
X5.82Y-8.18
X5.85Y-2.35
X5.85Y-2.775
X5.925Y-1.625
X5.925Y-5.05
X5.95Y-1.2
X5.95Y-2.775
X6.0007Y-1.25
X6.025Y-2.6
X6.025Y-6.375
X6.05Y-1.175
X6.05Y-5.075
X6.1Y-1.575
X6.15Y-2.325
X6.15Y-2.675
X6.15Y-4.35
X6.15Y-5.1
X6.175Y-3.25
X6.2Y-1.575
X6.2Y-6.425
X6.225Y-3.15
X6.225Y-4.25
X6.3Y-1.575
X6.35Y-1.975
X6.35Y-5.225
X6.375Y-1.45
X6.4Y-3.775
X6.45Y-1.9
X6.45Y-5.2
X6.45Y-6.28
X6.5Y-1.5
X6.55Y-2.05
X6.55Y-4.925
X6.55Y-5.225
X6.55Y-8.66
X6.6Y-1.525
X6.6Y-4.6
X6.6Y-4.7
X6.65Y-5.2
X6.675Y-5.475
X6.7Y-1.575
X6.7Y-2.425
X6.725Y-4.0
X6.75Y-1.325
X6.8Y-1.625
X6.8Y-2.7
X6.8Y-2.825
X6.85Y-3.825
X6.85Y-5.15
X6.875Y-3.9
X6.875Y-5.35
X6.875Y-7.04
X6.9Y-2.6
X6.925Y-4.075
X6.925Y-4.35
X6.925Y-4.65
X6.95Y-7.0
X7.0Y-1.375
X7.025Y-4.45
X7.025Y-4.75
X7.05Y-4.625
X7.05Y-5.5
X7.075Y-2.75
X7.075Y-4.1
X7.075Y-4.35
X7.075Y-4.85
X7.1Y-2.7
X7.1Y-4.075
X7.1Y-4.15
X7.1Y-4.425
X7.1Y-4.6
X7.125Y-1.5
X7.125Y-1.7
X7.125Y-2.65
X7.125Y-5.5
X7.15Y-3.15
X7.15Y-4.6
X7.15Y-4.95
X7.175Y-3.7
X7.175Y-4.35
X7.1875Y-3.6625
X7.2Y-1.925
X7.2Y-2.225
X7.2Y-3.225
X7.2Y-5.2
X7.2Y-5.5
X7.225Y-3.8
X7.225Y-4.55
X7.25Y-4.9
X7.25Y-5.4
X7.3Y-2.2
X7.3Y-3.925
X7.325Y-1.55
X7.35Y-4.15
X7.35Y-4.4
X7.35Y-4.7
X7.375Y-1.15
X7.375Y-4.6
X7.4Y-2.15
X7.4Y-3.1
X7.4Y-5.0
X7.425Y-5.1
X7.45Y-1.55
X7.45Y-3.2
X7.45Y-5.2
X7.475Y-5.3
X7.5Y-1.525
X7.5Y-2.225
X7.5Y-7.76
X7.525Y-5.75
X7.575Y-1.875
X7.62Y-7.72
X7.625Y-2.05
X7.64Y-7.0
X7.675Y-3.5
X7.7Y-3.6
X7.7Y-4.375
X7.7Y-4.7
X7.725Y-5.125
X7.74Y-6.425
X7.75Y-2.525
X7.75Y-5.2
X7.8Y-2.125
X7.8Y-2.375
X7.8Y-5.05
X7.825Y-8.66
X7.85Y-2.45
X7.85Y-3.6
X7.85Y-5.15
X7.85Y-5.45
X7.9Y-1.4
X7.9Y-4.85
X7.9Y-5.475
X7.925Y-1.65
X7.94Y-7.04
X7.95Y-2.15
X7.95Y-2.325
X7.95Y-5.5
X7.95Y-6.275
X8.025Y-2.45
X8.025Y-2.7
X8.025Y-5.45
X8.05Y-2.325
X8.05Y-3.2
X8.05Y-3.65
X8.05Y-4.55
X8.05Y-4.65
X8.05Y-6.325
X8.075Y-2.3
X8.075Y-3.55
X8.1Y-2.475
X8.1Y-3.1
X8.1Y-4.05
X8.1Y-4.15
X8.1Y-5.35
X8.1Y-5.55
X8.125Y-4.875
X8.125Y-7.04
X8.15Y-2.275
X8.15Y-2.525
X8.15Y-3.0
X8.15Y-3.25
X8.175Y-4.25
X8.175Y-4.45
X8.175Y-5.425
X8.2Y-3.15
X8.2Y-4.85
X8.225Y-4.15
X8.25Y-3.05
X8.275Y-2.525
X8.3Y-2.95
X8.35Y-2.85
X8.35Y-4.05
X8.35Y-4.2
X8.375Y-4.3
X8.375Y-5.225
X8.4Y-2.25
X8.4Y-3.3
X8.45Y-2.5
X8.45Y-5.15
X8.475Y-2.275
X8.475Y-5.575
X8.5Y-2.35
X8.5Y-6.375
X8.575Y-2.0
X8.6Y-8.54
X8.625Y-3.3
X8.625Y-5.675
X8.65Y-3.7
X8.65Y-3.825
X8.7Y-5.1
X8.7Y-5.675
X8.725Y-4.15
X8.725Y-4.9
X8.75Y-3.95
X8.75Y-4.05
X8.8Y-3.85
X8.8Y-4.15
X8.8Y-4.45
X8.8Y-5.65
X8.85Y-3.3
X8.85Y-5.225
X8.85Y-7.0
X8.86Y-7.72
X8.875Y-2.375
X8.9Y-3.5
X8.9Y-4.45
X8.95Y-2.75
X8.95Y-4.6
X8.95Y-5.05
X8.95Y-6.325
X8.975Y-4.05
X8.975Y-4.25
X9.0Y-2.45
X9.0Y-4.15
X9.0Y-4.35
X9.025Y-5.5
X9.1Y-1.775
X9.1Y-2.3
X9.1Y-2.4
X9.1Y-2.475
X9.15Y-2.775
X9.2Y-2.3
X9.2Y-3.6
X9.2Y-4.4
X9.2Y-5.225
X9.25Y-4.2
X9.25Y-4.55
X9.25Y-6.275
X9.35Y-5.6
X9.425Y-5.525
X9.425Y-6.375
X9.45Y-5.5
X9.475Y-5.225
X9.475Y-5.325
X9.475Y-5.775
X9.5Y-1.775
X9.525Y-5.625
X9.55Y-3.8
X9.55Y-6.96
X9.625Y-4.2
X9.625Y-6.1
X9.65Y-4.1
X9.65Y-4.25
X9.65Y-4.35
X9.675Y-6.325
X9.7Y-5.575
X9.7Y-5.975
X9.725Y-1.675
X9.725Y-7.76
X9.75Y-2.7
X9.8Y-2.4
X9.8Y-5.2
X9.8Y-5.675
X9.82Y-8.14
X9.825Y-2.225
X9.85Y-5.4
X9.875Y-2.4
X9.875Y-4.45
X9.9Y-5.375
X9.9Y-5.84
X9.9254Y-8.18
X9.95Y-5.575
X9.95Y-6.225
X9.975Y-1.675
X9.975Y-3.8
X9.975Y-3.9
X9.975Y-4.0
X10.0Y-2.65
X10.0Y-3.3
X10.0Y-4.875
X10.0Y-4.95
X10.0Y-5.55
X10.0Y-5.76
X10.05Y-3.5
X10.05Y-5.275
X10.075Y-2.6
X10.1Y-4.95
X10.1Y-5.525
X10.1Y-5.8
X10.1375Y-3.3875
X10.15Y-3.55
X10.15Y-3.8
X10.15Y-4.4
X10.15Y-8.66
X10.2Y-2.275
X10.2Y-2.75
X10.2Y-2.8
X10.2Y-3.0
X10.2Y-3.45
X10.2Y-4.1
X10.2Y-5.5
X10.25Y-2.225
X10.25Y-3.3
X10.25Y-3.65
X10.275Y-6.725
X10.3Y-5.475
X10.36Y-8.54
X10.4Y-2.325
X10.4Y-2.5
X10.4Y-5.45
X10.45Y-1.95
X10.45Y-2.925
X10.45Y-2.975
X10.475Y-1.975
X10.475Y-5.275
X10.5Y-1.775
X10.5Y-2.0
X10.5Y-2.775
X10.5Y-5.3
X10.5Y-7.72
X10.525Y-2.025
X10.55Y-1.775
X10.55Y-3.925
X10.55Y-6.325
X10.575Y-2.025
X10.575Y-5.275
X10.6Y-3.25
X10.625Y-2.85
X10.625Y-3.65
X10.625Y-4.2
X10.65Y-1.85
X10.65Y-3.35
X10.65Y-5.65
X10.675Y-2.65
X10.675Y-3.0
X10.675Y-4.875
X10.7Y-1.8
X10.725Y-2.65
X10.725Y-3.8
X10.74Y-7.0
X10.75Y-2.275
X10.775Y-2.025
X10.775Y-4.7
X10.775Y-5.3
X10.8Y-1.9
X10.8Y-2.325
X10.825Y-2.025
X10.85Y-2.175
X10.85Y-2.275
X10.85Y-2.75
X10.9Y-3.15
X10.9Y-3.25
X10.9Y-3.35
X10.9Y-5.325
X10.925Y-3.85
X10.925Y-5.35
X10.95Y-2.525
X10.95Y-3.925
X10.975Y-4.025
X10.975Y-4.2
X10.975Y-4.4
X10.975Y-4.8
X10.975Y-5.15
X11.0Y-4.675
X11.05Y-2.75
X11.075Y-2.5
X11.075Y-3.9
X11.1Y-2.475
X11.125Y-2.4
X11.125Y-3.55
X11.15Y-2.85
X11.175Y-2.95
X11.175Y-3.15
X11.175Y-3.8
X11.175Y-5.225
X11.2Y-2.9
X11.2Y-3.45
X11.225Y-2.575
X11.225Y-3.85
X11.225Y-4.8
X11.3Y-5.2
X11.311Y-6.275
X11.35Y-4.15
X11.425Y-2.275
X11.475Y-2.05
X11.475Y-4.3
X11.475Y-5.075
X11.475Y-5.275
X11.4875Y-2.725
X11.5Y-5.3
X11.5Y-5.625
X11.5Y-7.76
X11.525Y-5.325
X11.6Y-3.05
X11.6Y-3.35
X11.6Y-4.35
X11.6Y-4.65
X11.62Y-8.54
X11.65Y-2.9
X11.65Y-4.9
X11.675Y-3.65
X11.7Y-2.775
X11.7Y-3.45
X11.725Y-3.075
X11.725Y-3.15
X11.725Y-3.5
X11.775Y-1.025
X11.775Y-4.15
X11.775Y-4.25
X11.8Y-4.5
X11.85Y-5.4
X11.85Y-8.66
X11.875Y-1.325
X11.925Y-5.475
X11.925Y-6.325
X11.95Y-2.725
X12.0Y-3.075
X12.075Y-3.35
X12.075Y-4.05
X12.075Y-5.375
X12.1Y-3.85
X12.2Y-3.25
X12.2Y-4.95
X12.24Y-5.425
X12.24Y-7.08
X12.25Y-2.675
X12.25Y-5.0
X12.3Y-3.225
X12.325Y-2.975
X12.325Y-3.75
X12.35Y-4.2
X12.375Y-4.55
X12.4Y-3.425
X12.425Y-4.55
X12.425Y-6.275
X12.4375Y-2.2125
X12.45Y-2.15
X12.525Y-3.05
X12.55Y-4.35
X12.575Y-6.96
X12.6Y-2.25
X12.6Y-3.225
X12.6Y-8.58
X12.65Y-3.6
X12.65Y-4.675
X12.675Y-1.875
X12.7Y-3.4
X12.7Y-4.8
X12.7402Y-7.72
X12.825Y-5.275
X12.85Y-2.15
X12.85Y-3.175
X12.85Y-4.475
X12.85Y-4.85
X12.9Y-2.025
X12.9Y-4.625
X12.9Y-4.825
X12.9Y-8.62
X12.95Y-4.625
X12.95Y-4.725
X12.95Y-4.9
X12.95Y-5.8
X13.0Y-4.875
X13.025Y-5.35
X13.05Y-4.95
X13.075Y-3.425
X13.1Y-4.925
X13.15Y-4.675
X13.18Y-7.04
X13.2Y-4.6
X13.35Y-2.15
X13.35Y-3.175
X13.35Y-4.475
X13.6Y-3.6
X13.6Y-4.65
X13.675Y-6.375
X13.725Y-5.76
X13.74Y-6.96
X13.825Y-4.525
X13.85Y-2.15
X13.875Y-4.6
X13.875Y-4.7
X13.9Y-1.2
X14.05Y-2.15
X14.05Y-3.175
X14.05Y-4.475
X14.05Y-5.3
X14.15Y-4.65
X14.35Y-2.1
X14.5Y-4.575
X14.55Y-2.15
X14.55Y-3.175
X14.55Y-4.475
X14.6508Y-4.6492
X15.0Y-4.7
X15.05Y-2.15
X15.05Y-3.175
X15.05Y-4.475
X15.15Y-4.65
T2
X5.675Y-1.15
T3
X1.2Y-5.3496
X1.2Y-5.5496
X1.7Y-5.3496
X1.7Y-5.5496
X2.8Y-4.8
X2.8Y-5.0
X2.95Y-4.8
X2.95Y-5.0
X3.05Y-4.8
X3.05Y-5.0
X4.875Y-2.025
X4.875Y-2.275
X5.075Y-2.025
X5.075Y-2.275
X5.775Y-1.15
X5.775Y-1.35
X6.0Y-1.8
X6.125Y-2.05
X6.125Y-2.25
X6.2Y-1.8
X7.05Y-1.8
X7.05Y-2.0
X7.7Y-2.6
X7.7Y-2.7
X7.85Y-3.35
X7.85Y-3.55
X7.9Y-2.6
X7.9Y-2.7
X8.06Y-1.44
X8.06Y-1.64
X8.16Y-1.44
X8.16Y-1.64
X8.6Y-2.55
X8.6Y-2.75
X8.95Y-1.725
X8.95Y-1.825
X8.95Y-1.925
X9.15Y-1.725
X9.15Y-1.825
X9.15Y-1.925
X9.35Y-1.6
X9.475Y-2.15
X9.475Y-2.25
X9.55Y-1.6
X9.6Y-5.4
X9.6Y-5.6
X9.65Y-1.825
X9.65Y-2.025
X9.675Y-2.15
X9.675Y-2.25
X9.8Y-1.825
X9.8Y-2.025
X9.9Y-1.825
X9.9Y-2.025
X10.65Y-5.225
X10.85Y-5.225
X11.475Y-2.325
X11.475Y-2.525
X11.575Y-2.325
X11.575Y-2.525
X11.675Y-2.325
X11.675Y-2.525
X11.775Y-2.325
X11.775Y-2.525
X11.8677Y-2.4823
X11.9677Y-2.3823
X11.9677Y-2.5823
X11.9823Y-2.1
X11.9823Y-2.3
X12.0823Y-2.2
X12.15Y-2.1
X12.15Y-2.3
X12.15Y-2.375
X12.15Y-2.575
T4
X1.1Y-5.4504
X1.1Y-5.5488
X1.25Y-2.4
X1.25Y-2.4984
X1.3004Y-5.35
X1.3004Y-5.45
X1.3004Y-5.55
X1.3004Y-5.65
X1.4Y-2.5
X1.4Y-3.1
X1.4Y-3.325
X1.4Y-3.4234
X1.4Y-3.55
X1.4Y-3.65
X1.4Y-3.75
X1.4Y-3.85
X1.4Y-3.95
X1.4Y-4.05
X1.4Y-4.15
X1.4Y-4.25
X1.4Y-4.35
X1.4Y-4.45
X1.5Y-2.5
X1.5Y-3.1
X1.6Y-2.5
X1.6Y-3.1
X1.6004Y-5.35
X1.6004Y-5.45
X1.6004Y-5.55
X1.6004Y-5.65
X1.7Y-2.5
X1.7Y-3.1
X1.7Y-3.55
X1.7Y-3.65
X1.7Y-3.75
X1.7Y-3.85
X1.7Y-3.95
X1.7Y-4.05
X1.7Y-4.15
X1.7Y-4.25
X1.7Y-4.35
X1.7Y-4.45
X1.7Y-5.6504
X1.7Y-5.7488
X1.8Y-2.5
X1.8Y-3.1
X1.8Y-5.6504
X1.8Y-5.7488
X1.9Y-2.5
X1.9Y-3.1
X2.0Y-2.5
X2.0Y-3.1
X2.1Y-2.5
X2.1Y-3.1
X2.1Y-3.55
X2.1Y-3.65
X2.1Y-3.75
X2.1Y-3.85
X2.1Y-3.95
X2.1Y-4.05
X2.1Y-4.15
X2.1Y-4.25
X2.1Y-4.35
X2.1Y-4.45
X2.2Y-2.5
X2.2Y-3.1
X2.3Y-2.5
X2.3Y-3.1
X2.3766Y-3.425
X2.4Y-2.5
X2.4Y-3.1
X2.4Y-3.55
X2.4Y-3.65
X2.4Y-3.75
X2.4Y-3.85
X2.4Y-3.95
X2.4Y-4.05
X2.4Y-4.15
X2.4Y-4.25
X2.4Y-4.35
X2.4Y-4.45
X2.475Y-3.425
X2.5Y-2.5
X2.5Y-3.1
X2.6Y-2.5
X2.6Y-3.1
X2.7Y-2.5
X2.7Y-3.1
X2.8Y-2.5
X2.8Y-3.1
X2.8Y-3.55
X2.8Y-3.65
X2.8Y-3.75
X2.8Y-3.85
X2.8Y-3.95
X2.8Y-4.05
X2.8Y-4.15
X2.8Y-4.25
X2.8Y-4.35
X2.8Y-4.45
X2.9Y-2.5
X2.9Y-3.1
X3.0Y-2.5
X3.0Y-3.1
X3.1Y-2.5
X3.1Y-3.1
X3.1Y-3.55
X3.1Y-3.65
X3.1Y-3.75
X3.1Y-3.85
X3.1Y-3.95
X3.1Y-4.05
X3.1Y-4.15
X3.1Y-4.25
X3.1Y-4.35
X3.1Y-4.45
X3.2Y-2.5
X3.2Y-3.1
X3.225Y-3.3508
X3.225Y-3.4492
X3.3Y-2.5
X3.3Y-3.1
X3.3258Y-4.175
X3.4242Y-4.175
X3.4708Y-3.4
X3.55Y-2.5
X3.55Y-2.8
X3.55Y-4.0004
X3.55Y-4.3004
X3.5692Y-3.4
X3.65Y-2.5
X3.65Y-2.8
X3.65Y-3.0
X3.65Y-3.3
X3.65Y-3.5
X3.65Y-3.8
X3.65Y-4.0004
X3.65Y-4.3004
X3.65Y-4.5
X3.65Y-4.8
X3.75Y-2.5
X3.75Y-2.8
X3.75Y-3.0
X3.75Y-3.3
X3.75Y-3.5
X3.75Y-3.8
X3.75Y-4.0004
X3.75Y-4.3004
X3.75Y-4.5
X3.75Y-4.8
X3.85Y-2.5
X3.85Y-2.8
X3.85Y-3.0
X3.85Y-3.3
X3.85Y-3.5
X3.85Y-3.8
X3.85Y-4.0004
X3.85Y-4.3004
X3.85Y-4.5
X3.85Y-4.8
X3.95Y-2.5
X3.95Y-2.8
X3.95Y-3.0
X3.95Y-3.3
X3.95Y-3.5
X3.95Y-3.8
X3.95Y-4.0004
X3.95Y-4.3004
X3.95Y-4.5
X3.95Y-4.8
X4.05Y-2.5
X4.05Y-2.8
X4.05Y-3.0
X4.05Y-3.3
X4.05Y-3.5
X4.05Y-3.8
X4.05Y-4.0004
X4.05Y-4.3004
X4.05Y-4.5
X4.05Y-4.8
X4.15Y-2.5
X4.15Y-2.8
X4.15Y-3.0
X4.15Y-3.3
X4.15Y-3.5
X4.15Y-3.8
X4.15Y-4.0004
X4.15Y-4.3004
X4.15Y-4.5
X4.15Y-4.8
X4.25Y-2.5
X4.25Y-2.8
X4.25Y-3.0
X4.25Y-3.3
X4.25Y-3.5
X4.25Y-3.8
X4.25Y-4.0004
X4.25Y-4.3004
X4.25Y-4.5
X4.25Y-4.8
X4.2508Y-4.9
X4.3492Y-4.9
X4.4Y-2.7758
X4.4Y-2.8742
X4.5Y-4.0
X4.5Y-4.1
X4.5Y-4.2
X4.5Y-4.3
X4.5Y-4.4
X4.5Y-4.5
X4.5Y-4.6
X4.5Y-4.7
X4.5Y-4.8
X4.5004Y-2.9
X4.5004Y-3.0
X4.5004Y-3.1
X4.5004Y-3.2
X4.5004Y-3.3
X4.5004Y-3.4
X4.5004Y-3.5
X4.5004Y-3.6
X4.5004Y-3.7
X4.6766Y-3.85
X4.7016Y-2.75
X4.7234Y-2.0329
X4.7234Y-2.225
X4.775Y-3.85
X4.8Y-2.75
X4.8Y-4.0
X4.8Y-4.1
X4.8Y-4.2
X4.8Y-4.3
X4.8Y-4.4
X4.8Y-4.5
X4.8Y-4.6
X4.8Y-4.7
X4.8Y-4.8
X4.8004Y-2.9
X4.8004Y-3.0
X4.8004Y-3.1
X4.8004Y-3.2
X4.8004Y-3.3
X4.8004Y-3.4
X4.8004Y-3.5
X4.8004Y-3.6
X4.8004Y-3.7
X4.925Y-5.4
X4.975Y-2.15
X5.0Y-2.9
X5.0Y-3.0
X5.0Y-3.1
X5.0Y-3.2
X5.0Y-3.3
X5.0Y-3.4
X5.0Y-3.5
X5.0Y-3.6
X5.0Y-3.7
X5.0Y-4.0
X5.0Y-4.1
X5.0Y-4.2
X5.0Y-4.3
X5.0Y-4.4
X5.0Y-4.5
X5.0Y-4.6
X5.0Y-4.7
X5.0Y-4.8
X5.0Y-5.0
X5.0Y-5.3
X5.0234Y-5.4
X5.0734Y-2.15
X5.1Y-5.0
X5.1Y-5.3
X5.2Y-5.0
X5.2Y-5.3
X5.2008Y-2.75
X5.2008Y-3.85
X5.275Y-1.9
X5.2992Y-2.75
X5.2992Y-3.85
X5.3Y-2.9
X5.3Y-3.0
X5.3Y-3.1
X5.3Y-3.2
X5.3Y-3.3
X5.3Y-3.4
X5.3Y-3.5
X5.3Y-3.6
X5.3Y-3.7
X5.3Y-4.0
X5.3Y-4.1
X5.3Y-4.2
X5.3Y-4.3
X5.3Y-4.4
X5.3Y-4.5
X5.3Y-4.6
X5.3Y-4.7
X5.3Y-4.8
X5.3Y-5.0
X5.3Y-5.3
X5.3734Y-1.9
X5.4Y-2.0
X5.4Y-2.3
X5.4Y-5.0
X5.4Y-5.3
X5.5Y-2.0
X5.5Y-2.3
X5.5Y-2.9
X5.5Y-3.0
X5.5Y-3.1
X5.5Y-3.2
X5.5Y-3.3
X5.5Y-3.4
X5.5Y-3.5
X5.5Y-3.6
X5.5Y-3.7
X5.5Y-4.0
X5.5Y-4.1
X5.5Y-4.2
X5.5Y-4.3
X5.5Y-4.4
X5.5Y-4.5
X5.5Y-4.6
X5.5Y-4.7
X5.5Y-4.8
X5.5Y-5.0
X5.5Y-5.3
X5.5008Y-2.751
X5.5992Y-2.751
X5.6Y-2.0
X5.6Y-2.3
X5.6Y-5.0
X5.6Y-5.3
X5.7Y-2.0
X5.7Y-2.3
X5.7Y-5.0
X5.7Y-5.3
X5.8Y-2.0
X5.8Y-2.3
X5.8Y-2.9
X5.8Y-3.0
X5.8Y-3.1
X5.8Y-3.2
X5.8Y-3.3
X5.8Y-3.4
X5.8Y-3.5
X5.8Y-3.6
X5.8Y-3.7
X5.8Y-4.0
X5.8Y-4.1
X5.8Y-4.2
X5.8Y-4.3
X5.8Y-4.4
X5.8Y-4.5
X5.8Y-4.6
X5.8Y-4.7
X5.8Y-4.8
X5.8Y-5.0
X5.8Y-5.3
X5.8016Y-3.85
X5.9Y-2.0
X5.9Y-2.3
X5.9Y-3.85
X6.0Y-1.4
X6.0Y-1.7
X6.0Y-2.0
X6.0Y-2.3
X6.0Y-2.9
X6.0Y-3.0
X6.0Y-3.1
X6.0Y-3.2
X6.0Y-3.3
X6.0Y-3.4
X6.0Y-3.5
X6.0Y-3.6
X6.0Y-3.7
X6.0Y-4.0
X6.0Y-4.1
X6.0Y-4.2
X6.0Y-4.3
X6.0Y-4.4
X6.0Y-4.5
X6.0Y-4.6
X6.0Y-4.7
X6.0Y-4.8
X6.0Y-5.0
X6.0Y-5.3
X6.1Y-1.4
X6.1Y-1.7
X6.1Y-5.0
X6.1Y-5.3
X6.1008Y-1.9
X6.1992Y-1.9
X6.2Y-1.4
X6.2Y-1.7
X6.2Y-2.75
X6.2Y-5.0
X6.2Y-5.3
X6.2984Y-2.75
X6.3Y-1.4
X6.3Y-1.7
X6.3Y-2.0004
X6.3Y-2.3004
X6.3Y-2.9
X6.3Y-3.0
X6.3Y-3.1
X6.3Y-3.2
X6.3Y-3.3
X6.3Y-3.4
X6.3Y-3.5
X6.3Y-3.6
X6.3Y-3.7
X6.3Y-3.85
X6.3Y-4.0
X6.3Y-4.1
X6.3Y-4.2
X6.3Y-4.3
X6.3Y-4.4
X6.3Y-4.5
X6.3Y-4.6
X6.3Y-4.7
X6.3Y-4.8
X6.3Y-5.0
X6.3Y-5.3
X6.3016Y-1.8
X6.3984Y-3.85
X6.4Y-1.4
X6.4Y-1.7
X6.4Y-1.8
X6.4Y-2.0004
X6.4Y-2.3004
X6.4Y-5.0
X6.4Y-5.3
X6.5Y-1.4
X6.5Y-1.7
X6.5Y-2.0004
X6.5Y-2.3004
X6.5Y-2.9
X6.5Y-3.0
X6.5Y-3.1
X6.5Y-3.2
X6.5Y-3.3
X6.5Y-3.4
X6.5Y-3.5
X6.5Y-3.6
X6.5Y-3.7
X6.5Y-4.0
X6.5Y-4.1
X6.5Y-4.2
X6.5Y-4.3
X6.5Y-4.4
X6.5Y-4.5
X6.5Y-4.6
X6.5Y-4.7
X6.5Y-4.8
X6.5Y-5.0
X6.5Y-5.3
X6.5008Y-3.85
X6.5016Y-2.75
X6.5992Y-3.85
X6.6Y-1.4
X6.6Y-1.7
X6.6Y-2.0004
X6.6Y-2.3004
X6.6Y-2.75
X6.6Y-5.0
X6.6Y-5.3
X6.6079Y-1.85
X6.7Y-1.4
X6.7Y-1.7
X6.7Y-2.0004
X6.7Y-2.3004
X6.7Y-5.0
X6.7Y-5.3
X6.7516Y-5.475
X6.8Y-1.4
X6.8Y-1.7
X6.8Y-1.85
X6.8Y-2.0004
X6.8Y-2.3004
X6.8Y-2.9
X6.8Y-3.0
X6.8Y-3.1
X6.8Y-3.2
X6.8Y-3.3
X6.8Y-3.4
X6.8Y-3.5
X6.8Y-3.6
X6.8Y-3.7
X6.8Y-4.0
X6.8Y-4.1
X6.8Y-4.2
X6.8Y-4.3
X6.8Y-4.4
X6.8Y-4.5
X6.8Y-4.6
X6.8Y-4.7
X6.8Y-4.8
X6.8Y-5.0
X6.8Y-5.3
X6.85Y-5.475
X6.9Y-1.4
X6.9Y-1.7
X6.9Y-2.0004
X6.9Y-2.3004
X7.0Y-2.6
X7.0Y-2.7
X7.0Y-2.8
X7.0Y-2.9
X7.0Y-3.0
X7.0Y-3.1
X7.0Y-3.2
X7.0Y-3.3
X7.0Y-3.4
X7.0Y-3.5
X7.0Y-3.6
X7.0Y-3.7
X7.0Y-3.8
X7.0Y-3.9
X7.0Y-4.1
X7.0Y-4.2
X7.0Y-4.3
X7.0Y-4.4
X7.0Y-4.5
X7.0Y-4.6
X7.0Y-4.7
X7.0Y-4.8
X7.0Y-4.9
X7.0Y-5.0
X7.0Y-5.1
X7.0Y-5.2
X7.0Y-5.3
X7.0Y-5.4
X7.05Y-1.5016
X7.05Y-1.6
X7.2Y-1.4
X7.2Y-1.7
X7.2Y-2.0
X7.2Y-2.3
X7.3Y-1.4
X7.3Y-1.7
X7.3Y-2.0
X7.3Y-2.3
X7.4Y-1.4
X7.4Y-1.7
X7.4Y-2.0
X7.4Y-2.3
X7.425Y-5.525
X7.5Y-1.4
X7.5Y-1.7
X7.5Y-2.0
X7.5Y-2.3
X7.5234Y-5.525
X7.6Y-1.4
X7.6Y-1.7
X7.6Y-2.0
X7.6Y-2.3
X7.6Y-2.6
X7.6Y-2.7
X7.6Y-2.8
X7.6Y-2.9
X7.6Y-3.0
X7.6Y-3.1
X7.6Y-3.2
X7.6Y-3.3
X7.6Y-3.4
X7.6Y-3.5
X7.6Y-3.6
X7.6Y-3.7
X7.6Y-3.8
X7.6Y-3.9
X7.6Y-4.1
X7.6Y-4.2
X7.6Y-4.3
X7.6Y-4.4
X7.6Y-4.5
X7.6Y-4.6
X7.6Y-4.7
X7.6Y-4.8
X7.6Y-4.9
X7.6Y-5.0
X7.6Y-5.1
X7.6Y-5.2
X7.6Y-5.3
X7.6Y-5.4
X7.7Y-1.4
X7.7Y-1.7
X7.7Y-2.0
X7.7Y-2.3
X7.7016Y-2.9
X7.8Y-1.4
X7.8Y-1.7
X7.8Y-2.0
X7.8Y-2.3
X7.8Y-2.9
X7.925Y-1.8266
X7.925Y-1.925
X7.95Y-2.9
X7.95Y-3.0
X7.95Y-3.1
X7.95Y-3.2
X7.95Y-3.3
X7.95Y-3.4
X7.95Y-3.5
X7.95Y-3.6
X7.95Y-3.7
X7.95Y-3.8
X7.95Y-3.9
X7.95Y-4.0
X7.95Y-4.1
X7.95Y-4.2
X7.95Y-4.3
X7.95Y-4.4
X7.95Y-4.5
X7.95Y-4.6
X7.95Y-4.7
X7.95Y-4.8
X8.3124Y-1.375
X8.3911Y-1.375
X8.55Y-2.9
X8.55Y-3.0
X8.55Y-3.1
X8.55Y-3.2
X8.55Y-3.3
X8.55Y-3.4
X8.55Y-3.5
X8.55Y-3.6
X8.55Y-3.7
X8.55Y-3.8
X8.55Y-3.9
X8.55Y-4.0
X8.55Y-4.1
X8.55Y-4.2
X8.55Y-4.3
X8.55Y-4.4
X8.55Y-4.5
X8.55Y-4.6
X8.55Y-4.7
X8.55Y-4.8
X8.75Y-2.8
X8.75Y-2.9
X8.75Y-3.0
X8.75Y-3.1
X8.75Y-3.2
X8.75Y-3.3
X8.75Y-3.4
X8.75Y-3.5
X8.85Y-3.8
X8.85Y-3.9
X8.85Y-4.0
X8.85Y-4.1
X8.85Y-4.2
X8.85Y-4.3
X8.85Y-4.4
X8.85Y-4.5
X8.85Y-4.6
X8.85Y-4.7
X8.85Y-4.8
X8.85Y-4.9
X8.85Y-5.0
X8.85Y-5.1
X9.05Y-2.5258
X9.05Y-2.6242
X9.05Y-2.8
X9.05Y-2.9
X9.05Y-3.0
X9.05Y-3.1
X9.05Y-3.2
X9.05Y-3.3
X9.05Y-3.4
X9.05Y-3.5
X9.0508Y-2.025
X9.1492Y-2.025
X9.25Y-2.8
X9.25Y-2.9
X9.25Y-3.0
X9.25Y-3.1
X9.25Y-3.2
X9.25Y-3.3
X9.25Y-3.4
X9.25Y-3.5
X9.2504Y-1.7254
X9.2504Y-1.8254
X9.2504Y-1.9254
X9.2504Y-2.0254
X9.2586Y-2.2119
X9.3373Y-2.2119
X9.45Y-3.8
X9.45Y-3.9
X9.45Y-4.0
X9.45Y-4.1
X9.45Y-4.2
X9.45Y-4.3
X9.45Y-4.4
X9.45Y-4.5
X9.45Y-4.6
X9.45Y-4.7
X9.45Y-4.8
X9.45Y-4.9
X9.45Y-5.0
X9.45Y-5.1
X9.55Y-2.5758
X9.55Y-2.6742
X9.55Y-2.8
X9.55Y-2.9
X9.55Y-3.0
X9.55Y-3.1
X9.55Y-3.2
X9.55Y-3.3
X9.55Y-3.4
X9.55Y-3.5
X9.55Y-4.5016
X9.55Y-4.6
X9.5504Y-1.7254
X9.5504Y-1.8254
X9.5504Y-1.9254
X9.5504Y-2.0254
X9.5994Y-5.075
X9.6994Y-5.075
X9.75Y-2.9
X9.75Y-3.0
X9.75Y-3.1
X9.75Y-3.2
X9.75Y-3.3
X9.75Y-3.4
X9.75Y-3.5
X9.75Y-3.6
X9.75Y-3.7
X9.75Y-3.8
X9.75Y-3.9
X9.75Y-4.0
X9.75Y-4.1
X9.75Y-4.2
X9.75Y-4.3
X9.75Y-4.4
X9.75Y-4.5
X9.75Y-4.6
X9.75Y-4.7
X9.75Y-4.8
X9.7994Y-5.075
X9.8008Y-1.725
X9.8992Y-1.725
X9.8994Y-5.075
X9.9994Y-5.075
X10.0994Y-5.075
X10.15Y-2.1
X10.15Y-2.4
X10.1994Y-5.075
X10.25Y-2.1
X10.25Y-2.4
X10.25Y-2.6008
X10.25Y-2.6992
X10.2994Y-5.075
X10.35Y-2.1
X10.35Y-2.4
X10.35Y-2.9
X10.35Y-3.0
X10.35Y-3.1
X10.35Y-3.2
X10.35Y-3.3
X10.35Y-3.4
X10.35Y-3.5
X10.35Y-3.6
X10.35Y-3.7
X10.35Y-3.8
X10.35Y-3.9
X10.35Y-4.0
X10.35Y-4.1
X10.35Y-4.2
X10.35Y-4.3
X10.35Y-4.4
X10.35Y-4.5
X10.35Y-4.6
X10.35Y-4.7
X10.35Y-4.8
X10.3994Y-5.075
X10.45Y-2.1
X10.45Y-2.4
X10.55Y-2.1
X10.55Y-2.4
X10.55Y-2.9
X10.55Y-3.0
X10.55Y-3.1
X10.55Y-3.2
X10.55Y-3.3
X10.55Y-3.4
X10.55Y-3.5
X10.55Y-3.6
X10.55Y-3.7
X10.55Y-3.8
X10.55Y-4.1
X10.55Y-4.2
X10.55Y-4.3
X10.55Y-4.4
X10.55Y-4.5
X10.55Y-4.6
X10.55Y-4.7
X10.55Y-4.8
X10.55Y-4.9
X10.55Y-5.0
X10.5516Y-5.125
X10.65Y-2.1
X10.65Y-2.4
X10.65Y-5.125
X10.675Y-3.925
X10.75Y-2.1
X10.75Y-2.4
X10.7734Y-3.925
X10.85Y-2.1
X10.85Y-2.4
X10.85Y-2.9
X10.85Y-3.0
X10.85Y-3.1
X10.85Y-3.2
X10.85Y-3.3
X10.85Y-3.4
X10.85Y-3.5
X10.85Y-3.6
X10.85Y-3.7
X10.85Y-3.8
X10.85Y-4.1
X10.85Y-4.2
X10.85Y-4.3
X10.85Y-4.4
X10.85Y-4.5
X10.85Y-4.6
X10.85Y-4.7
X10.85Y-4.8
X10.85Y-4.9
X10.85Y-5.0
X11.05Y-2.9
X11.05Y-3.0
X11.05Y-3.1
X11.05Y-3.2
X11.05Y-3.3
X11.05Y-3.4
X11.05Y-3.5
X11.05Y-3.6
X11.05Y-3.7
X11.05Y-3.8
X11.05Y-4.3
X11.05Y-4.4
X11.05Y-4.5
X11.05Y-4.6
X11.05Y-4.7
X11.05Y-4.8
X11.05Y-4.9
X11.05Y-5.0
X11.1Y-1.3963
X11.1Y-1.475
X11.1Y-5.15
X11.1758Y-3.95
X11.1984Y-5.15
X11.2713Y-2.2
X11.2713Y-2.425
X11.2742Y-3.95
X11.35Y-2.2
X11.35Y-2.425
X11.35Y-2.9
X11.35Y-3.0
X11.35Y-3.1
X11.35Y-3.2
X11.35Y-3.3
X11.35Y-3.4
X11.35Y-3.5
X11.35Y-3.6
X11.35Y-3.7
X11.35Y-3.8
X11.35Y-4.3
X11.35Y-4.4
X11.35Y-4.5
X11.35Y-4.6
X11.35Y-4.7
X11.35Y-4.8
X11.35Y-4.9
X11.35Y-5.0
X11.5165Y-2.2
X11.55Y-2.9
X11.55Y-3.0
X11.55Y-3.1
X11.55Y-3.2
X11.55Y-3.3
X11.55Y-3.4
X11.55Y-3.5
X11.55Y-3.6
X11.55Y-3.7
X11.55Y-3.8
X11.55Y-3.9
X11.55Y-4.0
X11.55Y-4.1
X11.55Y-4.2
X11.55Y-4.3
X11.55Y-4.4
X11.55Y-4.5
X11.55Y-4.6
X11.55Y-4.7
X11.55Y-4.8
X11.7165Y-2.2
X12.15Y-2.9
X12.15Y-3.0
X12.15Y-3.1
X12.15Y-3.2
X12.15Y-3.3
X12.15Y-3.4
X12.15Y-3.5
X12.15Y-3.6
X12.15Y-3.7
X12.15Y-3.8
X12.15Y-3.9
X12.15Y-4.0
X12.15Y-4.1
X12.15Y-4.2
X12.15Y-4.3
X12.15Y-4.4
X12.15Y-4.5
X12.15Y-4.6
X12.15Y-4.7
X12.15Y-4.8
X12.25Y-4.8
X12.25Y-4.8984
X12.45Y-2.3
X12.45Y-2.4
X12.45Y-2.5
X12.45Y-2.6
X12.45Y-2.7
X12.45Y-2.8
X12.45Y-2.9
X12.45Y-3.0
X12.45Y-3.1
X12.45Y-3.6
X12.45Y-3.7
X12.45Y-3.8
X12.45Y-3.9
X12.45Y-4.0
X12.45Y-4.1
X12.45Y-4.2
X12.45Y-4.3
X12.45Y-4.4
X12.6492Y-4.55
X12.65Y-3.25
X12.7476Y-4.55
X12.7484Y-3.25
X12.75Y-2.3
X12.75Y-2.4
X12.75Y-2.5
X12.75Y-2.6
X12.75Y-2.7
X12.75Y-2.8
X12.75Y-2.9
X12.75Y-3.0
X12.75Y-3.1
X12.75Y-3.6
X12.75Y-3.7
X12.75Y-3.8
X12.75Y-3.9
X12.75Y-4.0
X12.75Y-4.1
X12.75Y-4.2
X12.75Y-4.3
X12.75Y-4.4
X12.95Y-2.3
X12.95Y-2.4
X12.95Y-2.5
X12.95Y-2.6
X12.95Y-2.7
X12.95Y-2.8
X12.95Y-2.9
X12.95Y-3.0
X12.95Y-3.1
X12.95Y-3.6
X12.95Y-3.7
X12.95Y-3.8
X12.95Y-3.9
X12.95Y-4.0
X12.95Y-4.1
X12.95Y-4.2
X12.95Y-4.3
X12.95Y-4.4
X13.1516Y-3.25
X13.1516Y-4.55
X13.25Y-2.3
X13.25Y-2.4
X13.25Y-2.5
X13.25Y-2.6
X13.25Y-2.7
X13.25Y-2.8
X13.25Y-2.9
X13.25Y-3.0
X13.25Y-3.1
X13.25Y-3.25
X13.25Y-3.6
X13.25Y-3.7
X13.25Y-3.8
X13.25Y-3.9
X13.25Y-4.0
X13.25Y-4.1
X13.25Y-4.2
X13.25Y-4.3
X13.25Y-4.4
X13.25Y-4.55
X13.45Y-2.3
X13.45Y-2.4
X13.45Y-2.5
X13.45Y-2.6
X13.45Y-2.7
X13.45Y-2.8
X13.45Y-2.9
X13.45Y-3.0
X13.45Y-3.1
X13.45Y-3.6
X13.45Y-3.7
X13.45Y-3.8
X13.45Y-3.9
X13.45Y-4.0
X13.45Y-4.1
X13.45Y-4.2
X13.45Y-4.3
X13.45Y-4.4
X13.4516Y-3.25
X13.55Y-3.25
X13.6516Y-4.55
X13.75Y-2.3
X13.75Y-2.4
X13.75Y-2.5
X13.75Y-2.6
X13.75Y-2.7
X13.75Y-2.8
X13.75Y-2.9
X13.75Y-3.0
X13.75Y-3.1
X13.75Y-3.6
X13.75Y-3.7
X13.75Y-3.8
X13.75Y-3.9
X13.75Y-4.0
X13.75Y-4.1
X13.75Y-4.2
X13.75Y-4.3
X13.75Y-4.4
X13.75Y-4.55
X13.95Y-2.3
X13.95Y-2.4
X13.95Y-2.5
X13.95Y-2.6
X13.95Y-2.7
X13.95Y-2.8
X13.95Y-2.9
X13.95Y-3.0
X13.95Y-3.1
X13.95Y-3.6
X13.95Y-3.7
X13.95Y-3.8
X13.95Y-3.9
X13.95Y-4.0
X13.95Y-4.1
X13.95Y-4.2
X13.95Y-4.3
X13.95Y-4.4
X14.15Y-3.25
X14.1508Y-4.55
X14.2484Y-3.25
X14.2492Y-4.55
X14.25Y-2.3
X14.25Y-2.4
X14.25Y-2.5
X14.25Y-2.6
X14.25Y-2.7
X14.25Y-2.8
X14.25Y-2.9
X14.25Y-3.0
X14.25Y-3.1
X14.25Y-3.6
X14.25Y-3.7
X14.25Y-3.8
X14.25Y-3.9
X14.25Y-4.0
X14.25Y-4.1
X14.25Y-4.2
X14.25Y-4.3
X14.25Y-4.4
X14.45Y-2.3
X14.45Y-2.4
X14.45Y-2.5
X14.45Y-2.6
X14.45Y-2.7
X14.45Y-2.8
X14.45Y-2.9
X14.45Y-3.0
X14.45Y-3.1
X14.45Y-3.6
X14.45Y-3.7
X14.45Y-3.8
X14.45Y-3.9
X14.45Y-4.0
X14.45Y-4.1
X14.45Y-4.2
X14.45Y-4.3
X14.45Y-4.4
X14.6508Y-3.25
X14.6508Y-4.55
X14.7492Y-3.25
X14.7492Y-4.55
X14.75Y-2.3
X14.75Y-2.4
X14.75Y-2.5
X14.75Y-2.6
X14.75Y-2.7
X14.75Y-2.8
X14.75Y-2.9
X14.75Y-3.0
X14.75Y-3.1
X14.75Y-3.6
X14.75Y-3.7
X14.75Y-3.8
X14.75Y-3.9
X14.75Y-4.0
X14.75Y-4.1
X14.75Y-4.2
X14.75Y-4.3
X14.75Y-4.4
X14.95Y-2.3
X14.95Y-2.4
X14.95Y-2.5
X14.95Y-2.6
X14.95Y-2.7
X14.95Y-2.8
X14.95Y-2.9
X14.95Y-3.0
X14.95Y-3.1
X14.95Y-3.6
X14.95Y-3.7
X14.95Y-3.8
X14.95Y-3.9
X14.95Y-4.0
X14.95Y-4.1
X14.95Y-4.2
X14.95Y-4.3
X14.95Y-4.4
X15.1508Y-3.25
X15.1508Y-4.55
X15.2492Y-3.25
X15.2492Y-4.55
X15.25Y-2.3
X15.25Y-2.4
X15.25Y-2.5
X15.25Y-2.6
X15.25Y-2.7
X15.25Y-2.8
X15.25Y-2.9
X15.25Y-3.0
X15.25Y-3.1
X15.25Y-3.6
X15.25Y-3.7
X15.25Y-3.8
X15.25Y-3.9
X15.25Y-4.0
X15.25Y-4.1
X15.25Y-4.2
X15.25Y-4.3
X15.25Y-4.4
T5
X1.45Y-2.275
X1.55Y-2.275
X2.2Y-1.15
X2.2Y-1.25
X2.2Y-1.4
X2.2Y-1.5
X2.3Y-1.15
X2.3Y-1.25
X2.3Y-1.4
X2.3Y-1.5
X2.4Y-1.15
X2.4Y-1.25
X2.4Y-1.4
X2.4Y-1.5
X2.5Y-1.15
X2.5Y-1.25
X2.5Y-1.4
X2.5Y-1.5
X2.6Y-1.15
X2.6Y-1.25
X2.6Y-1.4
X2.6Y-1.5
X2.7Y-1.15
X2.7Y-1.25
X2.7Y-1.4
X2.7Y-1.5
X2.8Y-1.15
X2.8Y-1.25
X2.8Y-1.4
X2.8Y-1.5
X2.9Y-1.15
X2.9Y-1.25
X2.9Y-1.4
X2.9Y-1.5
X3.0Y-1.15
X3.0Y-1.25
X3.0Y-1.4
X3.0Y-1.5
X3.1Y-1.15
X3.1Y-1.25
X3.1Y-1.4
X3.1Y-1.5
X3.2Y-1.15
X3.2Y-1.25
X3.2Y-1.4
X3.2Y-1.5
X3.3Y-1.15
X3.3Y-1.25
X3.3Y-1.4
X3.3Y-1.5
X3.4Y-1.15
X3.4Y-1.25
X3.4Y-1.4
X3.4Y-1.5
X3.5Y-1.15
X3.5Y-1.25
X3.5Y-1.4
X3.5Y-1.5
X3.525Y-5.05
X3.525Y-5.25
X3.6Y-1.15
X3.6Y-1.25
X3.6Y-1.4
X3.6Y-1.5
X3.625Y-5.05
X3.625Y-5.25
X3.7Y-1.15
X3.7Y-1.25
X3.7Y-1.4
X3.7Y-1.5
X3.8Y-1.15
X3.8Y-1.25
X3.8Y-1.4
X3.8Y-1.5
X3.85Y-5.15
X3.85Y-5.25
X3.9Y-1.15
X3.9Y-1.25
X3.9Y-1.4
X3.9Y-1.5
X3.95Y-5.15
X3.95Y-5.25
X4.0Y-1.15
X4.0Y-1.25
X4.0Y-1.4
X4.0Y-1.5
X4.05Y-5.15
X4.05Y-5.25
X4.1Y-1.15
X4.1Y-1.25
X4.1Y-1.4
X4.1Y-1.5
X4.15Y-5.15
X4.15Y-5.25
X4.2Y-1.15
X4.2Y-1.25
X4.2Y-1.4
X4.2Y-1.5
X4.25Y-5.15
X4.25Y-5.25
X4.3Y-1.15
X4.3Y-1.25
X4.3Y-1.4
X4.3Y-1.5
X4.35Y-5.15
X4.35Y-5.25
X4.4Y-1.15
X4.4Y-1.25
X4.4Y-1.4
X4.4Y-1.5
X4.45Y-5.15
X4.45Y-5.25
X4.5Y-1.15
X4.5Y-1.25
X4.5Y-1.4
X4.5Y-1.5
X4.55Y-5.15
X4.55Y-5.25
X4.6Y-1.15
X4.6Y-1.25
X4.6Y-1.4
X4.6Y-1.5
X4.65Y-5.15
X4.65Y-5.25
X4.7Y-1.15
X4.7Y-1.25
X4.7Y-1.4
X4.7Y-1.5
X4.75Y-5.15
X4.75Y-5.25
X4.8Y-1.15
X4.8Y-1.25
X4.8Y-1.4
X4.8Y-1.5
X4.9Y-1.15
X4.9Y-1.25
X4.9Y-1.4
X4.9Y-1.5
X5.0Y-1.15
X5.0Y-1.25
X5.0Y-1.4
X5.0Y-1.5
X5.1Y-1.15
X5.1Y-1.25
X5.1Y-1.4
X5.1Y-1.5
X5.2Y-1.15
X5.2Y-1.25
X5.2Y-1.4
X5.2Y-1.5
X5.3Y-1.15
X5.3Y-1.25
X5.3Y-1.4
X5.3Y-1.5
X6.1Y-1.1493
X6.1Y-1.2493
X6.2Y-1.1493
X6.2Y-1.2493
X6.3Y-1.1493
X6.3Y-1.2493
X6.4Y-1.1493
X6.4Y-1.2493
X6.5Y-1.1493
X6.5Y-1.2493
X6.6Y-1.1493
X6.6Y-1.2493
X6.7Y-1.1493
X6.7Y-1.2493
X6.8Y-1.1493
X6.8Y-1.2493
X6.9Y-1.1493
X6.9Y-1.2493
X7.0Y-1.1493
X7.0Y-1.2493
X7.05Y-2.2
X7.05Y-2.3
X7.1Y-1.1493
X7.1Y-1.2493
X7.2Y-1.1493
X7.2Y-1.2493
X7.3Y-1.1493
X7.3Y-1.2493
X7.4Y-1.825
X7.5Y-1.825
X8.05Y-1.9002
X8.05Y-2.0002
X8.5752Y-1.375
X8.6752Y-1.375
X10.6Y-1.05
X10.6Y-1.15
X10.7Y-1.05
X10.7Y-1.15
X10.8Y-1.05
X10.8Y-1.15
X10.9Y-1.05
X10.9Y-1.15
X11.0Y-1.05
X11.0Y-1.15
X11.0714Y-1.75
X11.2682Y-1.75
X11.35Y-5.15
X11.35Y-5.25
X11.4818Y-1.825
X11.6786Y-1.825
X12.8Y-5.075
X12.8Y-5.175
X12.9Y-5.075
X12.9Y-5.175
X13.0Y-5.075
X13.0Y-5.175
X13.1Y-5.075
X13.1Y-5.175
X13.2Y-5.075
X13.2Y-5.175
X13.3Y-5.075
X13.3Y-5.175
X13.4Y-5.075
X13.4Y-5.175
X13.5Y-5.075
X13.5Y-5.175
X13.6Y-5.075
X13.6Y-5.175
X13.7Y-5.075
X13.7Y-5.175
X13.8Y-5.075
X13.8Y-5.175
X13.8002Y-1.8502
X13.8002Y-1.9502
X13.9Y-5.075
X13.9Y-5.175
X13.9002Y-1.8502
X13.9002Y-1.9502
X14.0002Y-1.8502
X14.0002Y-1.9502
X14.1002Y-1.8502
X14.1002Y-1.9502
X14.2002Y-1.8502
X14.2002Y-1.9502
T6
X11.8713Y-1.4437
X11.8713Y-1.6406
X11.9638Y-1.05
X11.9638Y-1.5421
X12.0622Y-1.05
X12.1606Y-1.4437
X12.2591Y-1.05
X12.3575Y-1.05
X12.3575Y-1.5421
X12.45Y-1.4437
X12.45Y-1.6406
X13.6138Y-1.4563
X13.7063Y-1.0626
X13.7063Y-1.5547
X13.8047Y-1.0626
X13.9031Y-1.4563
X13.9031Y-1.6531
X14.0016Y-1.0626
X14.1Y-1.0626
X14.1Y-1.5547
X14.1925Y-1.4563
T7
X3.0827Y-6.0984
X3.2643Y-7.595
X3.3976Y-6.0984
X3.4488Y-6.8465
X3.5792Y-7.595
X3.6265Y-8.343
X3.7638Y-6.8465
X3.8307Y-6.0984
X3.9414Y-8.343
X4.0123Y-7.595
X4.1457Y-6.0984
X4.1969Y-6.8465
X4.3273Y-7.595
X4.3745Y-8.343
X4.5118Y-6.8465
X4.5787Y-6.0984
X4.6895Y-8.343
X4.7603Y-7.595
X4.8937Y-6.0984
X4.9449Y-6.8465
X5.0753Y-7.595
X5.1225Y-8.343
X5.2598Y-6.8465
X5.3268Y-6.0984
X5.4375Y-8.343
X5.5084Y-7.595
X5.6417Y-6.0984
X5.6929Y-6.8465
X5.8233Y-7.595
X5.8706Y-8.343
X6.0079Y-6.8465
X6.0748Y-6.0984
X6.1855Y-8.343
X6.2564Y-7.595
X6.3898Y-6.0984
X6.4375Y-6.8465
X6.5714Y-7.595
X6.6186Y-8.343
X6.7525Y-6.8465
X6.8194Y-6.0984
X6.9336Y-8.343
X7.0044Y-7.595
X7.1344Y-6.0984
X7.189Y-6.8465
X7.3194Y-7.595
X7.3666Y-8.343
X7.5039Y-6.8465
X7.5709Y-6.0984
X7.6816Y-8.343
X7.7525Y-7.595
X7.8858Y-6.0984
X7.937Y-6.8465
X8.0674Y-7.595
X8.1147Y-8.343
X8.252Y-6.8465
X8.3189Y-6.0984
X8.4296Y-8.343
X8.5Y-9.0906
X8.5005Y-7.595
X8.6339Y-6.0984
X8.685Y-6.8465
X8.815Y-9.0906
X8.8155Y-7.595
X8.8627Y-8.343
X9.0Y-6.8465
X9.0669Y-6.0984
X9.1777Y-8.343
X9.2485Y-7.595
X9.3819Y-6.0984
X9.4331Y-6.8465
X9.5635Y-7.595
X9.6107Y-8.343
X9.748Y-6.8465
X9.815Y-6.0984
X9.9257Y-8.343
X9.9966Y-7.595
X10.1299Y-6.0984
X10.1811Y-6.8465
X10.3115Y-7.595
X10.3588Y-8.343
X10.4961Y-6.8465
X10.563Y-6.0984
X10.6737Y-8.343
X10.7446Y-7.595
X10.878Y-6.0984
X10.9291Y-6.8465
X11.0595Y-7.595
X11.1068Y-8.343
X11.2441Y-6.8465
X11.311Y-6.0984
X11.4218Y-8.343
X11.4926Y-7.595
X11.626Y-6.0984
X11.6772Y-6.8465
X11.8076Y-7.595
X11.8548Y-8.343
X11.9921Y-6.8465
X12.0591Y-6.0984
X12.1698Y-8.343
X12.2406Y-7.595
X12.374Y-6.0984
X12.4252Y-6.8465
X12.5556Y-7.595
X12.6029Y-8.343
X12.7402Y-6.8465
X12.8071Y-6.0984
X12.9178Y-8.343
X12.9887Y-7.595
X13.122Y-6.0984
X13.1732Y-6.8465
X13.3036Y-7.595
X13.3509Y-8.343
X13.4882Y-6.8465
X13.555Y-6.0987
X13.6658Y-8.343
X13.7367Y-7.595
X13.87Y-6.0987
X13.9213Y-6.8465
X14.0517Y-7.595
X14.2362Y-6.8465
T8
X2.5272Y-6.5717
T5
G00X11.2781Y-1.3287
M15
G01X11.2781Y-1.4154
M16
G05
G00X11.5183Y-1.25
M15
G01X11.4317Y-1.25
M16
G05
G00X11.5183Y-1.4941
M15
G01X11.4317Y-1.4941
M16
G05
T6
G00X12.8606Y-1.121
M15
G01X12.9394Y-1.121
M16
G05
G00X12.9Y-1.2784
M15
G01X12.9Y-1.3178
M16
G05
M30
