%TF.GenerationSoftware,KiCad,Pcbnew,8.0.4*%
%TF.CreationDate,2025-01-14T13:43:07+00:00*%
%TF.ProjectId,AtomV5Board,41746f6d-5635-4426-9f61-72642e6b6963,rev?*%
%TF.SameCoordinates,Original*%
%TF.FileFunction,Soldermask,Top*%
%TF.FilePolarity,Negative*%
%FSLAX46Y46*%
G04 Gerber Fmt 4.6, Leading zero omitted, Abs format (unit mm)*
G04 Created by KiCad (PCBNEW 8.0.4) date 2025-01-14 13:43:07*
%MOMM*%
%LPD*%
G01*
G04 APERTURE LIST*
G04 Aperture macros list*
%AMRoundRect*
0 Rectangle with rounded corners*
0 $1 Rounding radius*
0 $2 $3 $4 $5 $6 $7 $8 $9 X,Y pos of 4 corners*
0 Add a 4 corners polygon primitive as box body*
4,1,4,$2,$3,$4,$5,$6,$7,$8,$9,$2,$3,0*
0 Add four circle primitives for the rounded corners*
1,1,$1+$1,$2,$3*
1,1,$1+$1,$4,$5*
1,1,$1+$1,$6,$7*
1,1,$1+$1,$8,$9*
0 Add four rect primitives between the rounded corners*
20,1,$1+$1,$2,$3,$4,$5,0*
20,1,$1+$1,$4,$5,$6,$7,0*
20,1,$1+$1,$6,$7,$8,$9,0*
20,1,$1+$1,$8,$9,$2,$3,0*%
G04 Aperture macros list end*
%ADD10C,1.600000*%
%ADD11R,1.600000X1.600000*%
%ADD12O,1.600000X1.600000*%
%ADD13C,1.400000*%
%ADD14O,1.400000X1.400000*%
%ADD15R,1.700000X1.700000*%
%ADD16O,1.700000X1.700000*%
%ADD17C,2.500000*%
%ADD18RoundRect,0.249999X-0.525001X-0.525001X0.525001X-0.525001X0.525001X0.525001X-0.525001X0.525001X0*%
%ADD19C,1.550000*%
%ADD20R,2.000000X2.000000*%
%ADD21C,2.000000*%
%ADD22C,6.500000*%
%ADD23R,1.500000X1.000000*%
%ADD24O,1.200000X1.600000*%
%ADD25O,1.200000X1.200000*%
%ADD26R,0.850000X0.850000*%
%ADD27R,4.500000X2.500000*%
%ADD28R,2.500000X3.000000*%
%ADD29R,4.400000X1.800000*%
%ADD30O,1.800000X4.000000*%
%ADD31O,4.000000X1.800000*%
%ADD32RoundRect,0.249999X0.525001X-0.525001X0.525001X0.525001X-0.525001X0.525001X-0.525001X-0.525001X0*%
%ADD33C,1.500000*%
%ADD34RoundRect,0.250000X0.600000X-0.600000X0.600000X0.600000X-0.600000X0.600000X-0.600000X-0.600000X0*%
%ADD35C,1.700000*%
%ADD36C,4.000000*%
%ADD37RoundRect,0.250000X-0.600000X0.600000X-0.600000X-0.600000X0.600000X-0.600000X0.600000X0.600000X0*%
G04 APERTURE END LIST*
D10*
%TO.C,C132*%
X321310000Y-82550000D03*
X323810000Y-82550000D03*
%TD*%
D11*
%TO.C,IC5*%
X107950000Y-114300000D03*
D12*
X105410000Y-114300000D03*
X102870000Y-114300000D03*
X100330000Y-114300000D03*
X97790000Y-114300000D03*
X95250000Y-114300000D03*
X92710000Y-114300000D03*
X92710000Y-121920000D03*
X95250000Y-121920000D03*
X97790000Y-121920000D03*
X100330000Y-121920000D03*
X102870000Y-121920000D03*
X105410000Y-121920000D03*
X107950000Y-121920000D03*
%TD*%
D11*
%TO.C,C3*%
X288290000Y-55880000D03*
D10*
X286290000Y-55880000D03*
%TD*%
D11*
%TO.C,IC2*%
X35560000Y-90170000D03*
D12*
X35560000Y-92710000D03*
X35560000Y-95250000D03*
X35560000Y-97790000D03*
X35560000Y-100330000D03*
X35560000Y-102870000D03*
X35560000Y-105410000D03*
X35560000Y-107950000D03*
X35560000Y-110490000D03*
X35560000Y-113030000D03*
X43180000Y-113030000D03*
X43180000Y-110490000D03*
X43180000Y-107950000D03*
X43180000Y-105410000D03*
X43180000Y-102870000D03*
X43180000Y-100330000D03*
X43180000Y-97790000D03*
X43180000Y-95250000D03*
X43180000Y-92710000D03*
X43180000Y-90170000D03*
%TD*%
D13*
%TO.C,R101*%
X146685000Y-34290000D03*
D14*
X146685000Y-29210000D03*
%TD*%
D11*
%TO.C,IC42*%
X379730000Y-58420000D03*
D12*
X379730000Y-60960000D03*
X379730000Y-63500000D03*
X379730000Y-66040000D03*
X379730000Y-68580000D03*
X379730000Y-71120000D03*
X379730000Y-73660000D03*
X379730000Y-76200000D03*
X379730000Y-78740000D03*
X387350000Y-78740000D03*
X387350000Y-76200000D03*
X387350000Y-73660000D03*
X387350000Y-71120000D03*
X387350000Y-68580000D03*
X387350000Y-66040000D03*
X387350000Y-63500000D03*
X387350000Y-60960000D03*
X387350000Y-58420000D03*
%TD*%
D13*
%TO.C,R33*%
X245745000Y-54610000D03*
D14*
X240665000Y-54610000D03*
%TD*%
D11*
%TO.C,IC47*%
X275590000Y-53340000D03*
D12*
X273050000Y-53340000D03*
X270510000Y-53340000D03*
X267970000Y-53340000D03*
X265430000Y-53340000D03*
X262890000Y-53340000D03*
X260350000Y-53340000D03*
X257810000Y-53340000D03*
X257810000Y-60960000D03*
X260350000Y-60960000D03*
X262890000Y-60960000D03*
X265430000Y-60960000D03*
X267970000Y-60960000D03*
X270510000Y-60960000D03*
X273050000Y-60960000D03*
X275590000Y-60960000D03*
%TD*%
D10*
%TO.C,C134*%
X334050000Y-82550000D03*
X336550000Y-82550000D03*
%TD*%
%TO.C,C141*%
X372130000Y-115570000D03*
X374630000Y-115570000D03*
%TD*%
D13*
%TO.C,R202*%
X43180000Y-135880000D03*
D14*
X43180000Y-140960000D03*
%TD*%
D10*
%TO.C,C128*%
X273645000Y-99695000D03*
X271145000Y-99695000D03*
%TD*%
D13*
%TO.C,R8*%
X291465000Y-64135000D03*
D14*
X291465000Y-59055000D03*
%TD*%
D13*
%TO.C,R40*%
X71120000Y-127000000D03*
D14*
X71120000Y-121920000D03*
%TD*%
D11*
%TO.C,IC10*%
X114310000Y-73660000D03*
D12*
X114310000Y-76200000D03*
X114310000Y-78740000D03*
X114310000Y-81280000D03*
X114310000Y-83820000D03*
X114310000Y-86360000D03*
X114310000Y-88900000D03*
X114310000Y-91440000D03*
X114310000Y-93980000D03*
X121930000Y-93980000D03*
X121930000Y-91440000D03*
X121930000Y-88900000D03*
X121930000Y-86360000D03*
X121930000Y-83820000D03*
X121930000Y-81280000D03*
X121930000Y-78740000D03*
X121930000Y-76200000D03*
X121930000Y-73660000D03*
%TD*%
D11*
%TO.C,IC37*%
X341630000Y-91440000D03*
D12*
X341630000Y-93980000D03*
X341630000Y-96520000D03*
X341630000Y-99060000D03*
X341630000Y-101600000D03*
X341630000Y-104140000D03*
X341630000Y-106680000D03*
X341630000Y-109220000D03*
X341630000Y-111760000D03*
X349250000Y-111760000D03*
X349250000Y-109220000D03*
X349250000Y-106680000D03*
X349250000Y-104140000D03*
X349250000Y-101600000D03*
X349250000Y-99060000D03*
X349250000Y-96520000D03*
X349250000Y-93980000D03*
X349250000Y-91440000D03*
%TD*%
D10*
%TO.C,C108*%
X111760000Y-73005000D03*
X111760000Y-70505000D03*
%TD*%
D11*
%TO.C,IC9*%
X152400000Y-50800000D03*
D12*
X149860000Y-50800000D03*
X147320000Y-50800000D03*
X144780000Y-50800000D03*
X142240000Y-50800000D03*
X139700000Y-50800000D03*
X137160000Y-50800000D03*
X137160000Y-58420000D03*
X139700000Y-58420000D03*
X142240000Y-58420000D03*
X144780000Y-58420000D03*
X147320000Y-58420000D03*
X149860000Y-58420000D03*
X152400000Y-58420000D03*
%TD*%
D13*
%TO.C,R3*%
X275590000Y-132715000D03*
D14*
X270510000Y-132715000D03*
%TD*%
D10*
%TO.C,C203*%
X45720000Y-143520000D03*
X45720000Y-146020000D03*
%TD*%
D13*
%TO.C,R12*%
X308610000Y-60325000D03*
D14*
X308610000Y-65405000D03*
%TD*%
D13*
%TO.C,R9*%
X299085000Y-59055000D03*
D14*
X299085000Y-64135000D03*
%TD*%
D13*
%TO.C,R201*%
X30480000Y-140960000D03*
D14*
X30480000Y-135880000D03*
%TD*%
D10*
%TO.C,C143*%
X384830000Y-115570000D03*
X387330000Y-115570000D03*
%TD*%
D11*
%TO.C,IC22*%
X201930000Y-73660000D03*
D12*
X201930000Y-76200000D03*
X201930000Y-78740000D03*
X201930000Y-81280000D03*
X201930000Y-83820000D03*
X201930000Y-86360000D03*
X201930000Y-88900000D03*
X201930000Y-91440000D03*
X201930000Y-93980000D03*
X201930000Y-96520000D03*
X201930000Y-99060000D03*
X201930000Y-101600000D03*
X201930000Y-104140000D03*
X201930000Y-106680000D03*
X201930000Y-109220000D03*
X201930000Y-111760000D03*
X201930000Y-114300000D03*
X201930000Y-116840000D03*
X201930000Y-119380000D03*
X201930000Y-121920000D03*
X217170000Y-121920000D03*
X217170000Y-119380000D03*
X217170000Y-116840000D03*
X217170000Y-114300000D03*
X217170000Y-111760000D03*
X217170000Y-109220000D03*
X217170000Y-106680000D03*
X217170000Y-104140000D03*
X217170000Y-101600000D03*
X217170000Y-99060000D03*
X217170000Y-96520000D03*
X217170000Y-93980000D03*
X217170000Y-91440000D03*
X217170000Y-88900000D03*
X217170000Y-86360000D03*
X217170000Y-83820000D03*
X217170000Y-81280000D03*
X217170000Y-78740000D03*
X217170000Y-76200000D03*
X217170000Y-73660000D03*
%TD*%
D11*
%TO.C,C8*%
X237167500Y-56182500D03*
D10*
X235167500Y-56182500D03*
%TD*%
%TO.C,L1*%
X292520000Y-55880000D03*
D12*
X297600000Y-55880000D03*
%TD*%
D13*
%TO.C,R4*%
X123825000Y-51435000D03*
D14*
X128905000Y-51435000D03*
%TD*%
D11*
%TO.C,IC18*%
X165100000Y-73660000D03*
D12*
X165100000Y-76200000D03*
X165100000Y-78740000D03*
X165100000Y-81280000D03*
X165100000Y-83820000D03*
X165100000Y-86360000D03*
X165100000Y-88900000D03*
X165100000Y-91440000D03*
X165100000Y-93980000D03*
X172720000Y-93980000D03*
X172720000Y-91440000D03*
X172720000Y-88900000D03*
X172720000Y-86360000D03*
X172720000Y-83820000D03*
X172720000Y-81280000D03*
X172720000Y-78740000D03*
X172720000Y-76200000D03*
X172720000Y-73660000D03*
%TD*%
D13*
%TO.C,R32*%
X240665000Y-57150000D03*
D14*
X245745000Y-57150000D03*
%TD*%
D10*
%TO.C,C113*%
X160020000Y-97790000D03*
X162520000Y-97790000D03*
%TD*%
D11*
%TO.C,I101*%
X33030000Y-135890000D03*
D12*
X33030000Y-138430000D03*
X33030000Y-140970000D03*
X33030000Y-143510000D03*
X40650000Y-143510000D03*
X40650000Y-140970000D03*
X40650000Y-138430000D03*
X40650000Y-135890000D03*
%TD*%
D10*
%TO.C,C130*%
X281940000Y-130810000D03*
X284440000Y-130810000D03*
%TD*%
D11*
%TO.C,IC21*%
X177800000Y-104140000D03*
D12*
X177800000Y-106680000D03*
X177800000Y-109220000D03*
X177800000Y-111760000D03*
X177800000Y-114300000D03*
X177800000Y-116840000D03*
X177800000Y-119380000D03*
X177800000Y-121920000D03*
X177800000Y-124460000D03*
X177800000Y-127000000D03*
X177800000Y-129540000D03*
X177800000Y-132080000D03*
X177800000Y-134620000D03*
X177800000Y-137160000D03*
X193040000Y-137160000D03*
X193040000Y-134620000D03*
X193040000Y-132080000D03*
X193040000Y-129540000D03*
X193040000Y-127000000D03*
X193040000Y-124460000D03*
X193040000Y-121920000D03*
X193040000Y-119380000D03*
X193040000Y-116840000D03*
X193040000Y-114300000D03*
X193040000Y-111760000D03*
X193040000Y-109220000D03*
X193040000Y-106680000D03*
X193040000Y-104140000D03*
%TD*%
D11*
%TO.C,IC31*%
X293370000Y-73660000D03*
D12*
X293370000Y-76200000D03*
X293370000Y-78740000D03*
X293370000Y-81280000D03*
X293370000Y-83820000D03*
X293370000Y-86360000D03*
X293370000Y-88900000D03*
X293370000Y-91440000D03*
X293370000Y-93980000D03*
X293370000Y-96520000D03*
X293370000Y-99060000D03*
X293370000Y-101600000D03*
X293370000Y-104140000D03*
X293370000Y-106680000D03*
X293370000Y-109220000D03*
X293370000Y-111760000D03*
X293370000Y-114300000D03*
X293370000Y-116840000D03*
X293370000Y-119380000D03*
X293370000Y-121920000D03*
X308610000Y-121920000D03*
X308610000Y-119380000D03*
X308610000Y-116840000D03*
X308610000Y-114300000D03*
X308610000Y-111760000D03*
X308610000Y-109220000D03*
X308610000Y-106680000D03*
X308610000Y-104140000D03*
X308610000Y-101600000D03*
X308610000Y-99060000D03*
X308610000Y-96520000D03*
X308610000Y-93980000D03*
X308610000Y-91440000D03*
X308610000Y-88900000D03*
X308610000Y-86360000D03*
X308610000Y-83820000D03*
X308610000Y-81280000D03*
X308610000Y-78740000D03*
X308610000Y-76200000D03*
X308610000Y-73660000D03*
%TD*%
D13*
%TO.C,R26*%
X179070000Y-45720000D03*
D14*
X179070000Y-50800000D03*
%TD*%
D11*
%TO.C,IC24*%
X224790000Y-96520000D03*
D12*
X224790000Y-99060000D03*
X224790000Y-101600000D03*
X224790000Y-104140000D03*
X224790000Y-106680000D03*
X224790000Y-109220000D03*
X224790000Y-111760000D03*
X224790000Y-114300000D03*
X224790000Y-116840000D03*
X224790000Y-119380000D03*
X224790000Y-121920000D03*
X224790000Y-124460000D03*
X224790000Y-127000000D03*
X224790000Y-129540000D03*
X240030000Y-129540000D03*
X240030000Y-127000000D03*
X240030000Y-124460000D03*
X240030000Y-121920000D03*
X240030000Y-119380000D03*
X240030000Y-116840000D03*
X240030000Y-114300000D03*
X240030000Y-111760000D03*
X240030000Y-109220000D03*
X240030000Y-106680000D03*
X240030000Y-104140000D03*
X240030000Y-101600000D03*
X240030000Y-99060000D03*
X240030000Y-96520000D03*
%TD*%
D11*
%TO.C,IC30*%
X280670000Y-109220000D03*
D12*
X280670000Y-111760000D03*
X280670000Y-114300000D03*
X280670000Y-116840000D03*
X280670000Y-119380000D03*
X280670000Y-121920000D03*
X280670000Y-124460000D03*
X280670000Y-127000000D03*
X288290000Y-127000000D03*
X288290000Y-124460000D03*
X288290000Y-121920000D03*
X288290000Y-119380000D03*
X288290000Y-116840000D03*
X288290000Y-114300000D03*
X288290000Y-111760000D03*
X288290000Y-109220000D03*
%TD*%
D10*
%TO.C,C131*%
X311150000Y-124420000D03*
X311150000Y-121920000D03*
%TD*%
D15*
%TO.C,PL101*%
X350525000Y-49535000D03*
D16*
X350525000Y-46995000D03*
X353065000Y-49535000D03*
X353065000Y-46995000D03*
X355605000Y-49535000D03*
X355605000Y-46995000D03*
X358145000Y-49535000D03*
X358145000Y-46995000D03*
X360685000Y-49535000D03*
X360685000Y-46995000D03*
%TD*%
D13*
%TO.C,R31*%
X242570000Y-40640000D03*
D14*
X237490000Y-40640000D03*
%TD*%
D10*
%TO.C,C139*%
X359430000Y-115570000D03*
X361930000Y-115570000D03*
%TD*%
%TO.C,C110*%
X121920000Y-69850000D03*
X119420000Y-69850000D03*
%TD*%
%TO.C,C111*%
X118785000Y-97790000D03*
X121285000Y-97790000D03*
%TD*%
%TO.C,C122*%
X195620000Y-73660000D03*
X198120000Y-73660000D03*
%TD*%
D15*
%TO.C,LS1*%
X220350000Y-34925000D03*
D16*
X217810000Y-34925000D03*
%TD*%
D11*
%TO.C,IC25*%
X247650000Y-73660000D03*
D12*
X247650000Y-76200000D03*
X247650000Y-78740000D03*
X247650000Y-81280000D03*
X247650000Y-83820000D03*
X247650000Y-86360000D03*
X247650000Y-88900000D03*
X247650000Y-91440000D03*
X247650000Y-93980000D03*
X247650000Y-96520000D03*
X247650000Y-99060000D03*
X247650000Y-101600000D03*
X247650000Y-104140000D03*
X247650000Y-106680000D03*
X247650000Y-109220000D03*
X247650000Y-111760000D03*
X247650000Y-114300000D03*
X247650000Y-116840000D03*
X247650000Y-119380000D03*
X247650000Y-121920000D03*
X262890000Y-121920000D03*
X262890000Y-119380000D03*
X262890000Y-116840000D03*
X262890000Y-114300000D03*
X262890000Y-111760000D03*
X262890000Y-109220000D03*
X262890000Y-106680000D03*
X262890000Y-104140000D03*
X262890000Y-101600000D03*
X262890000Y-99060000D03*
X262890000Y-96520000D03*
X262890000Y-93980000D03*
X262890000Y-91440000D03*
X262890000Y-88900000D03*
X262890000Y-86360000D03*
X262890000Y-83820000D03*
X262890000Y-81280000D03*
X262890000Y-78740000D03*
X262890000Y-76200000D03*
X262890000Y-73660000D03*
%TD*%
D10*
%TO.C,C105*%
X107970000Y-124460000D03*
X110470000Y-124460000D03*
%TD*%
%TO.C,C104*%
X81915000Y-87610000D03*
X81915000Y-85110000D03*
%TD*%
D13*
%TO.C,R29*%
X248920000Y-51435000D03*
D14*
X248920000Y-46355000D03*
%TD*%
D17*
%TO.C,PL102*%
X345790000Y-36990000D03*
X353140000Y-36990000D03*
X360490000Y-36990000D03*
X348140000Y-39490000D03*
X353140000Y-41990000D03*
X358140000Y-39490000D03*
X355640000Y-26990000D03*
X350640000Y-26990000D03*
X358140000Y-26990000D03*
X348140000Y-26990000D03*
%TD*%
D13*
%TO.C,R34*%
X245110000Y-51435000D03*
D14*
X245110000Y-46355000D03*
%TD*%
D10*
%TO.C,C124*%
X242570000Y-114340000D03*
X242570000Y-116840000D03*
%TD*%
%TO.C,C103*%
X60365000Y-86995000D03*
X62865000Y-86995000D03*
%TD*%
D18*
%TO.C,PL6*%
X55880000Y-29210000D03*
D19*
X58420000Y-29210000D03*
X60960000Y-29210000D03*
X63500000Y-29210000D03*
X66040000Y-29210000D03*
X68580000Y-29210000D03*
X71120000Y-29210000D03*
X73660000Y-29210000D03*
X76200000Y-29210000D03*
X78740000Y-29210000D03*
X81280000Y-29210000D03*
X83820000Y-29210000D03*
X86360000Y-29210000D03*
X88900000Y-29210000D03*
X91440000Y-29210000D03*
X93980000Y-29210000D03*
X96520000Y-29210000D03*
X99060000Y-29210000D03*
X101600000Y-29210000D03*
X104140000Y-29210000D03*
X106680000Y-29210000D03*
X109220000Y-29210000D03*
X111760000Y-29210000D03*
X114300000Y-29210000D03*
X116840000Y-29210000D03*
X119380000Y-29210000D03*
X121920000Y-29210000D03*
X124460000Y-29210000D03*
X127000000Y-29210000D03*
X129540000Y-29210000D03*
X132080000Y-29210000D03*
X134620000Y-29210000D03*
X55880000Y-31750000D03*
X58420000Y-31750000D03*
X60960000Y-31750000D03*
X63500000Y-31750000D03*
X66040000Y-31750000D03*
X68580000Y-31750000D03*
X71120000Y-31750000D03*
X73660000Y-31750000D03*
X76200000Y-31750000D03*
X78740000Y-31750000D03*
X81280000Y-31750000D03*
X83820000Y-31750000D03*
X86360000Y-31750000D03*
X88900000Y-31750000D03*
X91440000Y-31750000D03*
X93980000Y-31750000D03*
X96520000Y-31750000D03*
X99060000Y-31750000D03*
X101600000Y-31750000D03*
X104140000Y-31750000D03*
X106680000Y-31750000D03*
X109220000Y-31750000D03*
X111760000Y-31750000D03*
X114300000Y-31750000D03*
X116840000Y-31750000D03*
X119380000Y-31750000D03*
X121920000Y-31750000D03*
X124460000Y-31750000D03*
X127000000Y-31750000D03*
X129540000Y-31750000D03*
X132080000Y-31750000D03*
X134620000Y-31750000D03*
%TD*%
D10*
%TO.C,C102*%
X35560000Y-84455000D03*
X35560000Y-86955000D03*
%TD*%
%TO.C,C117*%
X132100000Y-97790000D03*
X134600000Y-97790000D03*
%TD*%
D13*
%TO.C,R35*%
X232410000Y-43815000D03*
D14*
X227330000Y-43815000D03*
%TD*%
D20*
%TO.C,C12*%
X291637323Y-46355000D03*
D21*
X296637323Y-46355000D03*
%TD*%
D13*
%TO.C,R39*%
X74930000Y-127000000D03*
D14*
X74930000Y-121920000D03*
%TD*%
D13*
%TO.C,R13*%
X199390000Y-85090000D03*
D14*
X199390000Y-90170000D03*
%TD*%
D15*
%TO.C,LK3*%
X92075000Y-133350000D03*
D16*
X89535000Y-133350000D03*
%TD*%
D11*
%TO.C,RN1*%
X243825000Y-128905000D03*
D12*
X246365000Y-128905000D03*
X248905000Y-128905000D03*
X251445000Y-128905000D03*
X253985000Y-128905000D03*
X256525000Y-128905000D03*
X259065000Y-128905000D03*
X261605000Y-128905000D03*
X264145000Y-128905000D03*
%TD*%
D10*
%TO.C,C126*%
X242570000Y-67925000D03*
X242570000Y-65425000D03*
%TD*%
D22*
%TO.C,KC1*%
X64190000Y-166920000D03*
%TD*%
D11*
%TO.C,IC3*%
X53340000Y-90170000D03*
D12*
X53340000Y-92710000D03*
X53340000Y-95250000D03*
X53340000Y-97790000D03*
X53340000Y-100330000D03*
X53340000Y-102870000D03*
X53340000Y-105410000D03*
X53340000Y-107950000D03*
X53340000Y-110490000D03*
X53340000Y-113030000D03*
X60960000Y-113030000D03*
X60960000Y-110490000D03*
X60960000Y-107950000D03*
X60960000Y-105410000D03*
X60960000Y-102870000D03*
X60960000Y-100330000D03*
X60960000Y-97790000D03*
X60960000Y-95250000D03*
X60960000Y-92710000D03*
X60960000Y-90170000D03*
%TD*%
D10*
%TO.C,C123*%
X229870000Y-66655000D03*
X229870000Y-64155000D03*
%TD*%
D11*
%TO.C,IC46*%
X234960000Y-43825000D03*
D12*
X234960000Y-46365000D03*
X234960000Y-48905000D03*
X234960000Y-51445000D03*
X242580000Y-51445000D03*
X242580000Y-48905000D03*
X242580000Y-46365000D03*
X242580000Y-43825000D03*
%TD*%
D15*
%TO.C,LK8*%
X190500000Y-46355000D03*
D16*
X187960000Y-46355000D03*
%TD*%
D15*
%TO.C,LK7*%
X204470000Y-50805000D03*
D16*
X204470000Y-48265000D03*
%TD*%
D11*
%TO.C,IC27*%
X267970000Y-104140000D03*
D12*
X267970000Y-106680000D03*
X267970000Y-109220000D03*
X267970000Y-111760000D03*
X267970000Y-114300000D03*
X267970000Y-116840000D03*
X267970000Y-119380000D03*
X267970000Y-121920000D03*
X267970000Y-124460000D03*
X267970000Y-127000000D03*
X275590000Y-127000000D03*
X275590000Y-124460000D03*
X275590000Y-121920000D03*
X275590000Y-119380000D03*
X275590000Y-116840000D03*
X275590000Y-114300000D03*
X275590000Y-111760000D03*
X275590000Y-109220000D03*
X275590000Y-106680000D03*
X275590000Y-104140000D03*
%TD*%
D11*
%TO.C,IC35*%
X328930000Y-91440000D03*
D12*
X328930000Y-93980000D03*
X328930000Y-96520000D03*
X328930000Y-99060000D03*
X328930000Y-101600000D03*
X328930000Y-104140000D03*
X328930000Y-106680000D03*
X328930000Y-109220000D03*
X328930000Y-111760000D03*
X336550000Y-111760000D03*
X336550000Y-109220000D03*
X336550000Y-106680000D03*
X336550000Y-104140000D03*
X336550000Y-101600000D03*
X336550000Y-99060000D03*
X336550000Y-96520000D03*
X336550000Y-93980000D03*
X336550000Y-91440000D03*
%TD*%
D23*
%TO.C,LK5*%
X313055000Y-73055000D03*
X313055000Y-71755000D03*
%TD*%
D10*
%TO.C,C101*%
X31750000Y-63460000D03*
X31750000Y-60960000D03*
%TD*%
D13*
%TO.C,R6*%
X308610000Y-58420000D03*
D14*
X308610000Y-53340000D03*
%TD*%
D13*
%TO.C,R36*%
X232410000Y-48895000D03*
D14*
X227330000Y-48895000D03*
%TD*%
D10*
%TO.C,C151*%
X127595000Y-137160000D03*
X125095000Y-137160000D03*
%TD*%
D11*
%TO.C,IC41*%
X367030000Y-91440000D03*
D12*
X367030000Y-93980000D03*
X367030000Y-96520000D03*
X367030000Y-99060000D03*
X367030000Y-101600000D03*
X367030000Y-104140000D03*
X367030000Y-106680000D03*
X367030000Y-109220000D03*
X367030000Y-111760000D03*
X374650000Y-111760000D03*
X374650000Y-109220000D03*
X374650000Y-106680000D03*
X374650000Y-104140000D03*
X374650000Y-101600000D03*
X374650000Y-99060000D03*
X374650000Y-96520000D03*
X374650000Y-93980000D03*
X374650000Y-91440000D03*
%TD*%
D13*
%TO.C,R25*%
X243840000Y-137160000D03*
D14*
X243840000Y-142240000D03*
%TD*%
D10*
%TO.C,C127*%
X270510000Y-130175000D03*
X268010000Y-130175000D03*
%TD*%
D15*
%TO.C,LK9*%
X89535000Y-128270000D03*
D16*
X92075000Y-128270000D03*
%TD*%
D10*
%TO.C,C129*%
X286365000Y-100330000D03*
X283865000Y-100330000D03*
%TD*%
%TO.C,C1*%
X128865000Y-54610000D03*
X126365000Y-54610000D03*
%TD*%
%TO.C,C125*%
X260350000Y-68560000D03*
X260350000Y-66060000D03*
%TD*%
D11*
%TO.C,IC8*%
X107950000Y-76200000D03*
D12*
X105410000Y-76200000D03*
X102870000Y-76200000D03*
X100330000Y-76200000D03*
X97790000Y-76200000D03*
X95250000Y-76200000D03*
X92710000Y-76200000D03*
X92710000Y-83820000D03*
X95250000Y-83820000D03*
X97790000Y-83820000D03*
X100330000Y-83820000D03*
X102870000Y-83820000D03*
X105410000Y-83820000D03*
X107950000Y-83820000D03*
%TD*%
D11*
%TO.C,IC15*%
X139700000Y-101600000D03*
D12*
X139700000Y-104140000D03*
X139700000Y-106680000D03*
X139700000Y-109220000D03*
X139700000Y-111760000D03*
X139700000Y-114300000D03*
X139700000Y-116840000D03*
X139700000Y-119380000D03*
X139700000Y-121920000D03*
X147320000Y-121920000D03*
X147320000Y-119380000D03*
X147320000Y-116840000D03*
X147320000Y-114300000D03*
X147320000Y-111760000D03*
X147320000Y-109220000D03*
X147320000Y-106680000D03*
X147320000Y-104140000D03*
X147320000Y-101600000D03*
%TD*%
D10*
%TO.C,C202*%
X43180000Y-143520000D03*
X43180000Y-146020000D03*
%TD*%
D13*
%TO.C,R15*%
X200660000Y-66040000D03*
D14*
X195580000Y-66040000D03*
%TD*%
D10*
%TO.C,C112*%
X157480000Y-69850000D03*
X159980000Y-69850000D03*
%TD*%
%TO.C,C119*%
X167620000Y-97790000D03*
X165120000Y-97790000D03*
%TD*%
D11*
%TO.C,IC32*%
X316230000Y-58420000D03*
D12*
X316230000Y-60960000D03*
X316230000Y-63500000D03*
X316230000Y-66040000D03*
X316230000Y-68580000D03*
X316230000Y-71120000D03*
X316230000Y-73660000D03*
X316230000Y-76200000D03*
X316230000Y-78740000D03*
X323850000Y-78740000D03*
X323850000Y-76200000D03*
X323850000Y-73660000D03*
X323850000Y-71120000D03*
X323850000Y-68580000D03*
X323850000Y-66040000D03*
X323850000Y-63500000D03*
X323850000Y-60960000D03*
X323850000Y-58420000D03*
%TD*%
D11*
%TO.C,IC20*%
X177800000Y-66040000D03*
D12*
X177800000Y-68580000D03*
X177800000Y-71120000D03*
X177800000Y-73660000D03*
X177800000Y-76200000D03*
X177800000Y-78740000D03*
X177800000Y-81280000D03*
X177800000Y-83820000D03*
X177800000Y-86360000D03*
X177800000Y-88900000D03*
X177800000Y-91440000D03*
X177800000Y-93980000D03*
X177800000Y-96520000D03*
X177800000Y-99060000D03*
X193040000Y-99060000D03*
X193040000Y-96520000D03*
X193040000Y-93980000D03*
X193040000Y-91440000D03*
X193040000Y-88900000D03*
X193040000Y-86360000D03*
X193040000Y-83820000D03*
X193040000Y-81280000D03*
X193040000Y-78740000D03*
X193040000Y-76200000D03*
X193040000Y-73660000D03*
X193040000Y-71120000D03*
X193040000Y-68580000D03*
X193040000Y-66040000D03*
%TD*%
D11*
%TO.C,IC23*%
X222250000Y-71120000D03*
D12*
X222250000Y-73660000D03*
X222250000Y-76200000D03*
X222250000Y-78740000D03*
X222250000Y-81280000D03*
X222250000Y-83820000D03*
X222250000Y-86360000D03*
X222250000Y-88900000D03*
X229870000Y-88900000D03*
X229870000Y-86360000D03*
X229870000Y-83820000D03*
X229870000Y-81280000D03*
X229870000Y-78740000D03*
X229870000Y-76200000D03*
X229870000Y-73660000D03*
X229870000Y-71120000D03*
%TD*%
D11*
%TO.C,IC6*%
X107950000Y-101610000D03*
D12*
X105410000Y-101610000D03*
X102870000Y-101610000D03*
X100330000Y-101610000D03*
X97790000Y-101610000D03*
X95250000Y-101610000D03*
X92710000Y-101610000D03*
X90170000Y-101610000D03*
X90170000Y-109230000D03*
X92710000Y-109230000D03*
X95250000Y-109230000D03*
X97790000Y-109230000D03*
X100330000Y-109230000D03*
X102870000Y-109230000D03*
X105410000Y-109230000D03*
X107950000Y-109230000D03*
%TD*%
D10*
%TO.C,C121*%
X191095000Y-140335000D03*
X188595000Y-140335000D03*
%TD*%
D13*
%TO.C,R2*%
X204724000Y-36576000D03*
D14*
X204724000Y-41656000D03*
%TD*%
D11*
%TO.C,IC13*%
X152400000Y-101600000D03*
D12*
X152400000Y-104140000D03*
X152400000Y-106680000D03*
X152400000Y-109220000D03*
X152400000Y-111760000D03*
X152400000Y-114300000D03*
X152400000Y-116840000D03*
X152400000Y-119380000D03*
X152400000Y-121920000D03*
X160020000Y-121920000D03*
X160020000Y-119380000D03*
X160020000Y-116840000D03*
X160020000Y-114300000D03*
X160020000Y-111760000D03*
X160020000Y-109220000D03*
X160020000Y-106680000D03*
X160020000Y-104140000D03*
X160020000Y-101600000D03*
%TD*%
D11*
%TO.C,IC34*%
X328930000Y-58420000D03*
D12*
X328930000Y-60960000D03*
X328930000Y-63500000D03*
X328930000Y-66040000D03*
X328930000Y-68580000D03*
X328930000Y-71120000D03*
X328930000Y-73660000D03*
X328930000Y-76200000D03*
X328930000Y-78740000D03*
X336550000Y-78740000D03*
X336550000Y-76200000D03*
X336550000Y-73660000D03*
X336550000Y-71120000D03*
X336550000Y-68580000D03*
X336550000Y-66040000D03*
X336550000Y-63500000D03*
X336550000Y-60960000D03*
X336550000Y-58420000D03*
%TD*%
D11*
%TO.C,IC19*%
X165100000Y-101600000D03*
D12*
X165100000Y-104140000D03*
X165100000Y-106680000D03*
X165100000Y-109220000D03*
X165100000Y-111760000D03*
X165100000Y-114300000D03*
X165100000Y-116840000D03*
X165100000Y-119380000D03*
X165100000Y-121920000D03*
X172720000Y-121920000D03*
X172720000Y-119380000D03*
X172720000Y-116840000D03*
X172720000Y-114300000D03*
X172720000Y-111760000D03*
X172720000Y-109220000D03*
X172720000Y-106680000D03*
X172720000Y-104140000D03*
X172720000Y-101600000D03*
%TD*%
D24*
%TO.C,Q2*%
X303980276Y-60509724D03*
D25*
X301440276Y-63049724D03*
X303980276Y-65589724D03*
%TD*%
D26*
%TO.C,J2*%
X144145000Y-29210000D03*
%TD*%
D15*
%TO.C,LK6*%
X179070000Y-58420000D03*
D16*
X179070000Y-55880000D03*
%TD*%
D13*
%TO.C,R10*%
X294005000Y-64135000D03*
D14*
X294005000Y-59055000D03*
%TD*%
D13*
%TO.C,R1*%
X207264000Y-36576000D03*
D14*
X207264000Y-41656000D03*
%TD*%
D11*
%TO.C,IC11*%
X114300000Y-101600000D03*
D12*
X114300000Y-104140000D03*
X114300000Y-106680000D03*
X114300000Y-109220000D03*
X114300000Y-111760000D03*
X114300000Y-114300000D03*
X114300000Y-116840000D03*
X114300000Y-119380000D03*
X114300000Y-121920000D03*
X121920000Y-121920000D03*
X121920000Y-119380000D03*
X121920000Y-116840000D03*
X121920000Y-114300000D03*
X121920000Y-111760000D03*
X121920000Y-109220000D03*
X121920000Y-106680000D03*
X121920000Y-104140000D03*
X121920000Y-101600000D03*
%TD*%
D11*
%TO.C,IC36*%
X341630000Y-58420000D03*
D12*
X341630000Y-60960000D03*
X341630000Y-63500000D03*
X341630000Y-66040000D03*
X341630000Y-68580000D03*
X341630000Y-71120000D03*
X341630000Y-73660000D03*
X341630000Y-76200000D03*
X341630000Y-78740000D03*
X349250000Y-78740000D03*
X349250000Y-76200000D03*
X349250000Y-73660000D03*
X349250000Y-71120000D03*
X349250000Y-68580000D03*
X349250000Y-66040000D03*
X349250000Y-63500000D03*
X349250000Y-60960000D03*
X349250000Y-58420000D03*
%TD*%
D11*
%TO.C,IC43*%
X379730000Y-91440000D03*
D12*
X379730000Y-93980000D03*
X379730000Y-96520000D03*
X379730000Y-99060000D03*
X379730000Y-101600000D03*
X379730000Y-104140000D03*
X379730000Y-106680000D03*
X379730000Y-109220000D03*
X379730000Y-111760000D03*
X387350000Y-111760000D03*
X387350000Y-109220000D03*
X387350000Y-106680000D03*
X387350000Y-104140000D03*
X387350000Y-101600000D03*
X387350000Y-99060000D03*
X387350000Y-96520000D03*
X387350000Y-93980000D03*
X387350000Y-91440000D03*
%TD*%
D10*
%TO.C,C133*%
X321290000Y-115570000D03*
X323790000Y-115570000D03*
%TD*%
%TO.C,C135*%
X334050000Y-115570000D03*
X336550000Y-115570000D03*
%TD*%
%TO.C,C145*%
X157460000Y-48260000D03*
X154960000Y-48260000D03*
%TD*%
%TO.C,C142*%
X384830000Y-82550000D03*
X387330000Y-82550000D03*
%TD*%
D11*
%TO.C,IC48*%
X198120000Y-35560000D03*
D12*
X195580000Y-35560000D03*
X193040000Y-35560000D03*
X190500000Y-35560000D03*
X187960000Y-35560000D03*
X185420000Y-35560000D03*
X182880000Y-35560000D03*
X182880000Y-43180000D03*
X185420000Y-43180000D03*
X187960000Y-43180000D03*
X190500000Y-43180000D03*
X193040000Y-43180000D03*
X195580000Y-43180000D03*
X198120000Y-43180000D03*
%TD*%
D13*
%TO.C,R16*%
X218440000Y-69850000D03*
D14*
X218440000Y-64770000D03*
%TD*%
D10*
%TO.C,C148*%
X201295000Y-46395000D03*
X201295000Y-48895000D03*
%TD*%
D11*
%TO.C,IC14*%
X139700000Y-73660000D03*
D12*
X139700000Y-76200000D03*
X139700000Y-78740000D03*
X139700000Y-81280000D03*
X139700000Y-83820000D03*
X139700000Y-86360000D03*
X139700000Y-88900000D03*
X139700000Y-91440000D03*
X139700000Y-93980000D03*
X147320000Y-93980000D03*
X147320000Y-91440000D03*
X147320000Y-88900000D03*
X147320000Y-86360000D03*
X147320000Y-83820000D03*
X147320000Y-81280000D03*
X147320000Y-78740000D03*
X147320000Y-76200000D03*
X147320000Y-73660000D03*
%TD*%
D11*
%TO.C,IC45*%
X175260000Y-50810000D03*
D12*
X172720000Y-50810000D03*
X170180000Y-50810000D03*
X167640000Y-50810000D03*
X165100000Y-50810000D03*
X162560000Y-50810000D03*
X160020000Y-50810000D03*
X160020000Y-58430000D03*
X162560000Y-58430000D03*
X165100000Y-58430000D03*
X167640000Y-58430000D03*
X170180000Y-58430000D03*
X172720000Y-58430000D03*
X175260000Y-58430000D03*
%TD*%
D10*
%TO.C,C109*%
X136485000Y-48260000D03*
X133985000Y-48260000D03*
%TD*%
D27*
%TO.C,PL103*%
X327660000Y-28472500D03*
D28*
X327660000Y-32972500D03*
%TD*%
D11*
%TO.C,C4*%
X288290000Y-61595000D03*
D10*
X286290000Y-61595000D03*
%TD*%
%TO.C,C115*%
X147360000Y-97790000D03*
X149860000Y-97790000D03*
%TD*%
D11*
%TO.C,IC17*%
X127000000Y-101600000D03*
D12*
X127000000Y-104140000D03*
X127000000Y-106680000D03*
X127000000Y-109220000D03*
X127000000Y-111760000D03*
X127000000Y-114300000D03*
X127000000Y-116840000D03*
X127000000Y-119380000D03*
X127000000Y-121920000D03*
X134620000Y-121920000D03*
X134620000Y-119380000D03*
X134620000Y-116840000D03*
X134620000Y-114300000D03*
X134620000Y-111760000D03*
X134620000Y-109220000D03*
X134620000Y-106680000D03*
X134620000Y-104140000D03*
X134620000Y-101600000D03*
%TD*%
D13*
%TO.C,R5*%
X128905000Y-57785000D03*
D14*
X123825000Y-57785000D03*
%TD*%
D13*
%TO.C,R27*%
X157480000Y-45720000D03*
D14*
X152400000Y-45720000D03*
%TD*%
D11*
%TO.C,IC12*%
X152400000Y-73660000D03*
D12*
X152400000Y-76200000D03*
X152400000Y-78740000D03*
X152400000Y-81280000D03*
X152400000Y-83820000D03*
X152400000Y-86360000D03*
X152400000Y-88900000D03*
X152400000Y-91440000D03*
X152400000Y-93980000D03*
X160020000Y-93980000D03*
X160020000Y-91440000D03*
X160020000Y-88900000D03*
X160020000Y-86360000D03*
X160020000Y-83820000D03*
X160020000Y-81280000D03*
X160020000Y-78740000D03*
X160020000Y-76200000D03*
X160020000Y-73660000D03*
%TD*%
D10*
%TO.C,C201*%
X27940000Y-140940000D03*
X27940000Y-138440000D03*
%TD*%
D11*
%TO.C,IC38*%
X354330000Y-58420000D03*
D12*
X354330000Y-60960000D03*
X354330000Y-63500000D03*
X354330000Y-66040000D03*
X354330000Y-68580000D03*
X354330000Y-71120000D03*
X354330000Y-73660000D03*
X354330000Y-76200000D03*
X354330000Y-78740000D03*
X361950000Y-78740000D03*
X361950000Y-76200000D03*
X361950000Y-73660000D03*
X361950000Y-71120000D03*
X361950000Y-68580000D03*
X361950000Y-66040000D03*
X361950000Y-63500000D03*
X361950000Y-60960000D03*
X361950000Y-58420000D03*
%TD*%
D10*
%TO.C,C116*%
X132100000Y-69850000D03*
X134600000Y-69850000D03*
%TD*%
D13*
%TO.C,R14*%
X200660000Y-68580000D03*
D14*
X195580000Y-68580000D03*
%TD*%
D11*
%TO.C,IC40*%
X367030000Y-58420000D03*
D12*
X367030000Y-60960000D03*
X367030000Y-63500000D03*
X367030000Y-66040000D03*
X367030000Y-68580000D03*
X367030000Y-71120000D03*
X367030000Y-73660000D03*
X367030000Y-76200000D03*
X367030000Y-78740000D03*
X374650000Y-78740000D03*
X374650000Y-76200000D03*
X374650000Y-73660000D03*
X374650000Y-71120000D03*
X374650000Y-68580000D03*
X374650000Y-66040000D03*
X374650000Y-63500000D03*
X374650000Y-60960000D03*
X374650000Y-58420000D03*
%TD*%
D13*
%TO.C,R7*%
X296545000Y-59055000D03*
D14*
X296545000Y-64135000D03*
%TD*%
D11*
%TO.C,IC26*%
X234950000Y-71120000D03*
D12*
X234950000Y-73660000D03*
X234950000Y-76200000D03*
X234950000Y-78740000D03*
X234950000Y-81280000D03*
X234950000Y-83820000D03*
X234950000Y-86360000D03*
X234950000Y-88900000D03*
X242570000Y-88900000D03*
X242570000Y-86360000D03*
X242570000Y-83820000D03*
X242570000Y-81280000D03*
X242570000Y-78740000D03*
X242570000Y-76200000D03*
X242570000Y-73660000D03*
X242570000Y-71120000D03*
%TD*%
D29*
%TO.C,SK3*%
X291465000Y-37950000D03*
D30*
X286465000Y-34850000D03*
D31*
X291465000Y-31750000D03*
%TD*%
D11*
%TO.C,C9*%
X281940000Y-37465000D03*
D10*
X281940000Y-35465000D03*
%TD*%
D11*
%TO.C,IC16*%
X127000000Y-73660000D03*
D12*
X127000000Y-76200000D03*
X127000000Y-78740000D03*
X127000000Y-81280000D03*
X127000000Y-83820000D03*
X127000000Y-86360000D03*
X127000000Y-88900000D03*
X127000000Y-91440000D03*
X127000000Y-93980000D03*
X134620000Y-93980000D03*
X134620000Y-91440000D03*
X134620000Y-88900000D03*
X134620000Y-86360000D03*
X134620000Y-83820000D03*
X134620000Y-81280000D03*
X134620000Y-78740000D03*
X134620000Y-76200000D03*
X134620000Y-73660000D03*
%TD*%
D20*
%TO.C,C13*%
X286212677Y-44450000D03*
D21*
X281212677Y-44450000D03*
%TD*%
D24*
%TO.C,Q1*%
X304349724Y-58420000D03*
D25*
X306889724Y-55880000D03*
X304349724Y-53340000D03*
%TD*%
D15*
%TO.C,LK1*%
X288290000Y-130810000D03*
D16*
X288290000Y-133350000D03*
%TD*%
D13*
%TO.C,R37*%
X232410000Y-46355000D03*
D14*
X227330000Y-46355000D03*
%TD*%
D10*
%TO.C,C6*%
X248940000Y-43815000D03*
X251440000Y-43815000D03*
%TD*%
D15*
%TO.C,LK2*%
X39370000Y-57785000D03*
D16*
X36830000Y-57785000D03*
%TD*%
D11*
%TO.C,IC52*%
X172720000Y-127000000D03*
D12*
X170180000Y-127000000D03*
X167640000Y-127000000D03*
X165100000Y-127000000D03*
X162560000Y-127000000D03*
X160020000Y-127000000D03*
X157480000Y-127000000D03*
X154940000Y-127000000D03*
X152400000Y-127000000D03*
X152400000Y-134620000D03*
X154940000Y-134620000D03*
X157480000Y-134620000D03*
X160020000Y-134620000D03*
X162560000Y-134620000D03*
X165100000Y-134620000D03*
X167640000Y-134620000D03*
X170180000Y-134620000D03*
X172720000Y-134620000D03*
%TD*%
D11*
%TO.C,IC1*%
X83820000Y-63500000D03*
D12*
X81280000Y-63500000D03*
X78740000Y-63500000D03*
X76200000Y-63500000D03*
X73660000Y-63500000D03*
X71120000Y-63500000D03*
X68580000Y-63500000D03*
X66040000Y-63500000D03*
X63500000Y-63500000D03*
X60960000Y-63500000D03*
X58420000Y-63500000D03*
X55880000Y-63500000D03*
X53340000Y-63500000D03*
X50800000Y-63500000D03*
X48260000Y-63500000D03*
X45720000Y-63500000D03*
X43180000Y-63500000D03*
X40640000Y-63500000D03*
X38100000Y-63500000D03*
X35560000Y-63500000D03*
X35560000Y-78740000D03*
X38100000Y-78740000D03*
X40640000Y-78740000D03*
X43180000Y-78740000D03*
X45720000Y-78740000D03*
X48260000Y-78740000D03*
X50800000Y-78740000D03*
X53340000Y-78740000D03*
X55880000Y-78740000D03*
X58420000Y-78740000D03*
X60960000Y-78740000D03*
X63500000Y-78740000D03*
X66040000Y-78740000D03*
X68580000Y-78740000D03*
X71120000Y-78740000D03*
X73660000Y-78740000D03*
X76200000Y-78740000D03*
X78740000Y-78740000D03*
X81280000Y-78740000D03*
X83820000Y-78740000D03*
%TD*%
D10*
%TO.C,C136*%
X344170000Y-82550000D03*
X341670000Y-82550000D03*
%TD*%
D13*
%TO.C,R28*%
X155575000Y-52070000D03*
D14*
X155575000Y-57150000D03*
%TD*%
D13*
%TO.C,R41*%
X77470000Y-127000000D03*
D14*
X77470000Y-121920000D03*
%TD*%
D11*
%TO.C,IC7*%
X107950000Y-88900000D03*
D12*
X105410000Y-88900000D03*
X102870000Y-88900000D03*
X100330000Y-88900000D03*
X97790000Y-88900000D03*
X95250000Y-88900000D03*
X92710000Y-88900000D03*
X92710000Y-96520000D03*
X95250000Y-96520000D03*
X97790000Y-96520000D03*
X100330000Y-96520000D03*
X102870000Y-96520000D03*
X105410000Y-96520000D03*
X107950000Y-96520000D03*
%TD*%
D11*
%TO.C,IC39*%
X354330000Y-91440000D03*
D12*
X354330000Y-93980000D03*
X354330000Y-96520000D03*
X354330000Y-99060000D03*
X354330000Y-101600000D03*
X354330000Y-104140000D03*
X354330000Y-106680000D03*
X354330000Y-109220000D03*
X354330000Y-111760000D03*
X361950000Y-111760000D03*
X361950000Y-109220000D03*
X361950000Y-106680000D03*
X361950000Y-104140000D03*
X361950000Y-101600000D03*
X361950000Y-99060000D03*
X361950000Y-96520000D03*
X361950000Y-93980000D03*
X361950000Y-91440000D03*
%TD*%
D23*
%TO.C,LK4*%
X311150000Y-85060000D03*
X311150000Y-86360000D03*
%TD*%
D32*
%TO.C,PL7*%
X55880000Y-38100000D03*
D19*
X58420000Y-38100000D03*
X60960000Y-38100000D03*
X63500000Y-38100000D03*
X66040000Y-38100000D03*
X68580000Y-38100000D03*
X71120000Y-38100000D03*
X73660000Y-38100000D03*
X76200000Y-38100000D03*
X78740000Y-38100000D03*
X81280000Y-38100000D03*
X83820000Y-38100000D03*
X86360000Y-38100000D03*
X88900000Y-38100000D03*
X91440000Y-38100000D03*
X93980000Y-38100000D03*
X96520000Y-38100000D03*
X99060000Y-38100000D03*
X101600000Y-38100000D03*
X104140000Y-38100000D03*
X106680000Y-38100000D03*
X109220000Y-38100000D03*
X111760000Y-38100000D03*
X114300000Y-38100000D03*
X116840000Y-38100000D03*
X119380000Y-38100000D03*
X121920000Y-38100000D03*
X124460000Y-38100000D03*
X127000000Y-38100000D03*
X129540000Y-38100000D03*
X132080000Y-38100000D03*
X134620000Y-38100000D03*
X55880000Y-35560000D03*
X58420000Y-35560000D03*
X60960000Y-35560000D03*
X63500000Y-35560000D03*
X66040000Y-35560000D03*
X68580000Y-35560000D03*
X71120000Y-35560000D03*
X73660000Y-35560000D03*
X76200000Y-35560000D03*
X78740000Y-35560000D03*
X81280000Y-35560000D03*
X83820000Y-35560000D03*
X86360000Y-35560000D03*
X88900000Y-35560000D03*
X91440000Y-35560000D03*
X93980000Y-35560000D03*
X96520000Y-35560000D03*
X99060000Y-35560000D03*
X101600000Y-35560000D03*
X104140000Y-35560000D03*
X106680000Y-35560000D03*
X109220000Y-35560000D03*
X111760000Y-35560000D03*
X114300000Y-35560000D03*
X116840000Y-35560000D03*
X119380000Y-35560000D03*
X121920000Y-35560000D03*
X124460000Y-35560000D03*
X127000000Y-35560000D03*
X129540000Y-35560000D03*
X132080000Y-35560000D03*
X134620000Y-35560000D03*
%TD*%
D10*
%TO.C,C150*%
X179070000Y-40640000D03*
X179070000Y-38140000D03*
%TD*%
D15*
%TO.C,PL4*%
X269240000Y-29210000D03*
D16*
X269240000Y-26670000D03*
X271780000Y-29210000D03*
X271780000Y-26670000D03*
X274320000Y-29210000D03*
X274320000Y-26670000D03*
X276860000Y-29210000D03*
X276860000Y-26670000D03*
X279400000Y-29210000D03*
X279400000Y-26670000D03*
%TD*%
D10*
%TO.C,C107*%
X90658000Y-86360000D03*
X88158000Y-86360000D03*
%TD*%
D33*
%TO.C,X2*%
X172720000Y-46990000D03*
X167840000Y-46990000D03*
%TD*%
D11*
%TO.C,C5*%
X211134888Y-34925000D03*
D10*
X213134888Y-34925000D03*
%TD*%
D13*
%TO.C,R30*%
X251460000Y-46355000D03*
D14*
X251460000Y-51435000D03*
%TD*%
D11*
%TO.C,IC28*%
X267970000Y-73660000D03*
D12*
X267970000Y-76200000D03*
X267970000Y-78740000D03*
X267970000Y-81280000D03*
X267970000Y-83820000D03*
X267970000Y-86360000D03*
X267970000Y-88900000D03*
X267970000Y-91440000D03*
X267970000Y-93980000D03*
X267970000Y-96520000D03*
X275590000Y-96520000D03*
X275590000Y-93980000D03*
X275590000Y-91440000D03*
X275590000Y-88900000D03*
X275590000Y-86360000D03*
X275590000Y-83820000D03*
X275590000Y-81280000D03*
X275590000Y-78740000D03*
X275590000Y-76200000D03*
X275590000Y-73660000D03*
%TD*%
D33*
%TO.C,X1*%
X119975000Y-51635000D03*
X119975000Y-56515000D03*
%TD*%
D34*
%TO.C,PL5*%
X154940000Y-31732500D03*
D35*
X154940000Y-29192500D03*
X157480000Y-31732500D03*
X157480000Y-29192500D03*
X160020000Y-31732500D03*
X160020000Y-29192500D03*
X162560000Y-31732500D03*
X162560000Y-29192500D03*
X165100000Y-31732500D03*
X165100000Y-29192500D03*
X167640000Y-31732500D03*
X167640000Y-29192500D03*
X170180000Y-31732500D03*
X170180000Y-29192500D03*
X172720000Y-31732500D03*
X172720000Y-29192500D03*
X175260000Y-31732500D03*
X175260000Y-29192500D03*
X177800000Y-31732500D03*
X177800000Y-29192500D03*
X180340000Y-31732500D03*
X180340000Y-29192500D03*
X182880000Y-31732500D03*
X182880000Y-29192500D03*
X185420000Y-31732500D03*
X185420000Y-29192500D03*
%TD*%
D11*
%TO.C,IC29*%
X280670000Y-73660000D03*
D12*
X280670000Y-76200000D03*
X280670000Y-78740000D03*
X280670000Y-81280000D03*
X280670000Y-83820000D03*
X280670000Y-86360000D03*
X280670000Y-88900000D03*
X280670000Y-91440000D03*
X280670000Y-93980000D03*
X280670000Y-96520000D03*
X288290000Y-96520000D03*
X288290000Y-93980000D03*
X288290000Y-91440000D03*
X288290000Y-88900000D03*
X288290000Y-86360000D03*
X288290000Y-83820000D03*
X288290000Y-81280000D03*
X288290000Y-78740000D03*
X288290000Y-76200000D03*
X288290000Y-73660000D03*
%TD*%
D17*
%TO.C,SK2*%
X301530000Y-36670000D03*
X308880000Y-36670000D03*
X316230000Y-36670000D03*
X303880000Y-39170000D03*
X313880000Y-39170000D03*
X301530000Y-41670000D03*
X316230000Y-41670000D03*
X311380000Y-26670000D03*
X306380000Y-26670000D03*
X313880000Y-26670000D03*
X303880000Y-26670000D03*
%TD*%
D11*
%TO.C,IC33*%
X316230000Y-91440000D03*
D12*
X316230000Y-93980000D03*
X316230000Y-96520000D03*
X316230000Y-99060000D03*
X316230000Y-101600000D03*
X316230000Y-104140000D03*
X316230000Y-106680000D03*
X316230000Y-109220000D03*
X316230000Y-111760000D03*
X323850000Y-111760000D03*
X323850000Y-109220000D03*
X323850000Y-106680000D03*
X323850000Y-104140000D03*
X323850000Y-101600000D03*
X323850000Y-99060000D03*
X323850000Y-96520000D03*
X323850000Y-93980000D03*
X323850000Y-91440000D03*
%TD*%
D10*
%TO.C,C137*%
X346750000Y-115570000D03*
X349250000Y-115570000D03*
%TD*%
%TO.C,C118*%
X167640000Y-69850000D03*
X165140000Y-69850000D03*
%TD*%
D11*
%TO.C,IC4*%
X71120000Y-90170000D03*
D12*
X71120000Y-92710000D03*
X71120000Y-95250000D03*
X71120000Y-97790000D03*
X71120000Y-100330000D03*
X71120000Y-102870000D03*
X71120000Y-105410000D03*
X71120000Y-107950000D03*
X71120000Y-110490000D03*
X71120000Y-113030000D03*
X78740000Y-113030000D03*
X78740000Y-110490000D03*
X78740000Y-107950000D03*
X78740000Y-105410000D03*
X78740000Y-102870000D03*
X78740000Y-100330000D03*
X78740000Y-97790000D03*
X78740000Y-95250000D03*
X78740000Y-92710000D03*
X78740000Y-90170000D03*
%TD*%
D11*
%TO.C,IC50*%
X175260000Y-35560000D03*
D12*
X172720000Y-35560000D03*
X170180000Y-35560000D03*
X167640000Y-35560000D03*
X165100000Y-35560000D03*
X162560000Y-35560000D03*
X160020000Y-35560000D03*
X157480000Y-35560000D03*
X154940000Y-35560000D03*
X152400000Y-35560000D03*
X152400000Y-43180000D03*
X154940000Y-43180000D03*
X157480000Y-43180000D03*
X160020000Y-43180000D03*
X162560000Y-43180000D03*
X165100000Y-43180000D03*
X167640000Y-43180000D03*
X170180000Y-43180000D03*
X172720000Y-43180000D03*
X175260000Y-43180000D03*
%TD*%
D10*
%TO.C,C10*%
X162560000Y-45720000D03*
X160060000Y-45720000D03*
%TD*%
D11*
%TO.C,IC51*%
X147320000Y-127000000D03*
D12*
X144780000Y-127000000D03*
X142240000Y-127000000D03*
X139700000Y-127000000D03*
X137160000Y-127000000D03*
X134620000Y-127000000D03*
X132080000Y-127000000D03*
X129540000Y-127000000D03*
X127000000Y-127000000D03*
X127000000Y-134620000D03*
X129540000Y-134620000D03*
X132080000Y-134620000D03*
X134620000Y-134620000D03*
X137160000Y-134620000D03*
X139700000Y-134620000D03*
X142240000Y-134620000D03*
X144780000Y-134620000D03*
X147320000Y-134620000D03*
%TD*%
D10*
%TO.C,C152*%
X171490000Y-139065000D03*
X173990000Y-139065000D03*
%TD*%
%TO.C,C114*%
X142220000Y-69875000D03*
X139720000Y-69875000D03*
%TD*%
%TO.C,C7*%
X232390000Y-51435000D03*
X229890000Y-51435000D03*
%TD*%
%TO.C,C138*%
X359410000Y-82550000D03*
X361910000Y-82550000D03*
%TD*%
D11*
%TO.C,IC49*%
X107950000Y-63500000D03*
D12*
X105410000Y-63500000D03*
X102870000Y-63500000D03*
X100330000Y-63500000D03*
X97790000Y-63500000D03*
X95250000Y-63500000D03*
X92710000Y-63500000D03*
X90170000Y-63500000D03*
X90170000Y-71120000D03*
X92710000Y-71120000D03*
X95250000Y-71120000D03*
X97790000Y-71120000D03*
X100330000Y-71120000D03*
X102870000Y-71120000D03*
X105410000Y-71120000D03*
X107950000Y-71120000D03*
%TD*%
D11*
%TO.C,IC44*%
X198120000Y-50800000D03*
D12*
X195580000Y-50800000D03*
X193040000Y-50800000D03*
X190500000Y-50800000D03*
X187960000Y-50800000D03*
X185420000Y-50800000D03*
X182880000Y-50800000D03*
X182880000Y-58420000D03*
X185420000Y-58420000D03*
X187960000Y-58420000D03*
X190500000Y-58420000D03*
X193040000Y-58420000D03*
X195580000Y-58420000D03*
X198120000Y-58420000D03*
%TD*%
D10*
%TO.C,C106*%
X86975000Y-106045000D03*
X84475000Y-106045000D03*
%TD*%
%TO.C,C140*%
X372130000Y-82550000D03*
X374630000Y-82550000D03*
%TD*%
D34*
%TO.C,PL8*%
X120650000Y-133350000D03*
D35*
X120650000Y-130810000D03*
X118110000Y-133350000D03*
X118110000Y-130810000D03*
X115570000Y-133350000D03*
X115570000Y-130810000D03*
X113030000Y-133350000D03*
X113030000Y-130810000D03*
X110490000Y-133350000D03*
X110490000Y-130810000D03*
X107950000Y-133350000D03*
X107950000Y-130810000D03*
X105410000Y-133350000D03*
X105410000Y-130810000D03*
X102870000Y-133350000D03*
X102870000Y-130810000D03*
X100330000Y-133350000D03*
X100330000Y-130810000D03*
X97790000Y-133350000D03*
X97790000Y-130810000D03*
%TD*%
D36*
%TO.C,KB41*%
X185912500Y-192912500D03*
X177912500Y-192912500D03*
%TD*%
%TO.C,KB39*%
X219300000Y-154900000D03*
X211300000Y-154900000D03*
%TD*%
%TO.C,KB11*%
X152600000Y-173900000D03*
X144600000Y-173900000D03*
%TD*%
%TO.C,KB19*%
X361600000Y-173900000D03*
X353600000Y-173900000D03*
%TD*%
%TO.C,KB31*%
X105300000Y-154900000D03*
X97300000Y-154900000D03*
%TD*%
%TO.C,KB55*%
X223900000Y-230900000D03*
X215900000Y-230900000D03*
%TD*%
%TO.C,KB23*%
X214112500Y-211912500D03*
X206112500Y-211912500D03*
%TD*%
%TO.C,KB3*%
X143300000Y-154900000D03*
X135300000Y-154900000D03*
%TD*%
%TO.C,KB13*%
X356912500Y-192912500D03*
X348912500Y-192912500D03*
%TD*%
%TO.C,KB38*%
X90912500Y-192912500D03*
X82912500Y-192912500D03*
%TD*%
%TO.C,KB22*%
X280912500Y-192912500D03*
X272912500Y-192912500D03*
%TD*%
%TO.C,KB51*%
X257300000Y-154900000D03*
X249300000Y-154900000D03*
%TD*%
%TO.C,KB32*%
X342600000Y-173900000D03*
X334600000Y-173900000D03*
%TD*%
%TO.C,KB28*%
X271112500Y-211912500D03*
X263112500Y-211912500D03*
%TD*%
%TO.C,KB5*%
X323600000Y-173900000D03*
X315600000Y-173900000D03*
%TD*%
%TO.C,KB60*%
X266600000Y-173900000D03*
X258600000Y-173900000D03*
%TD*%
%TO.C,KB33*%
X200300000Y-154900000D03*
X192300000Y-154900000D03*
%TD*%
%TO.C,KB34*%
X233112500Y-211912500D03*
X225112500Y-211912500D03*
%TD*%
%TO.C,KB6*%
X352297500Y-154907500D03*
X344297500Y-154907500D03*
%TD*%
%TO.C,KB49*%
X128912500Y-192912500D03*
X120912500Y-192912500D03*
%TD*%
%TO.C,KB59*%
X223912500Y-192912500D03*
X215912500Y-192912500D03*
%TD*%
%TO.C,KB58*%
X157112500Y-211912500D03*
X149112500Y-211912500D03*
%TD*%
%TO.C,KB16*%
X285600000Y-173900000D03*
X277600000Y-173900000D03*
%TD*%
%TO.C,KB67*%
X337912500Y-192912500D03*
X329912500Y-192912500D03*
%TD*%
%TO.C,KB10*%
X261912500Y-192912500D03*
X253912500Y-192912500D03*
%TD*%
%TO.C,KB17*%
X171512500Y-173900000D03*
X163512500Y-173900000D03*
%TD*%
%TO.C,KB53*%
X190600000Y-173900000D03*
X182600000Y-173900000D03*
%TD*%
%TO.C,KB69*%
X100112500Y-211912500D03*
X92112500Y-211912500D03*
%TD*%
%TO.C,KB29*%
X195112500Y-211912500D03*
X187112500Y-211912500D03*
%TD*%
%TO.C,KB25*%
X347112500Y-211912500D03*
X339112500Y-211912500D03*
%TD*%
%TO.C,KB70*%
X328112500Y-211912500D03*
X320112500Y-211912500D03*
%TD*%
%TO.C,KB43*%
X114600000Y-173900000D03*
X106600000Y-173900000D03*
%TD*%
%TO.C,KB1*%
X86300000Y-154900000D03*
X78300000Y-154900000D03*
%TD*%
%TO.C,KB42*%
X209600000Y-173900000D03*
X201600000Y-173900000D03*
%TD*%
%TO.C,KB14*%
X333300000Y-154900000D03*
X325300000Y-154900000D03*
%TD*%
%TO.C,KB68*%
X119112500Y-211912500D03*
X111112500Y-211912500D03*
%TD*%
%TO.C,KB18*%
X228600000Y-173900000D03*
X220600000Y-173900000D03*
%TD*%
%TO.C,KB54*%
X299912500Y-192912500D03*
X291912500Y-192912500D03*
%TD*%
%TO.C,KB35*%
X166912500Y-192912500D03*
X158912500Y-192912500D03*
%TD*%
%TO.C,KB20*%
X162300000Y-154900000D03*
X154300000Y-154900000D03*
%TD*%
%TO.C,KB27*%
X181212500Y-154900000D03*
X173212500Y-154900000D03*
%TD*%
%TO.C,KB52*%
X138112500Y-211912500D03*
X130112500Y-211912500D03*
%TD*%
%TO.C,KB26*%
X95600000Y-173900000D03*
X87600000Y-173900000D03*
%TD*%
%TO.C,KB40*%
X318912500Y-192912500D03*
X310912500Y-192912500D03*
%TD*%
%TO.C,KB12*%
X309112500Y-211912500D03*
X301112500Y-211912500D03*
%TD*%
%TO.C,KB9*%
X176112500Y-211912500D03*
X168112500Y-211912500D03*
%TD*%
%TO.C,KB48*%
X247600000Y-173900000D03*
X239600000Y-173900000D03*
%TD*%
%TO.C,KB47*%
X204912500Y-192912500D03*
X196912500Y-192912500D03*
%TD*%
%TO.C,KB4*%
X242912500Y-192912500D03*
X234912500Y-192912500D03*
%TD*%
%TO.C,KB2*%
X295300000Y-154900000D03*
X287300000Y-154900000D03*
%TD*%
%TO.C,KB45*%
X238300000Y-154900000D03*
X230300000Y-154900000D03*
%TD*%
%TO.C,KB36*%
X252112500Y-211912500D03*
X244112500Y-211912500D03*
%TD*%
%TO.C,KB8*%
X314300000Y-154900000D03*
X306300000Y-154900000D03*
%TD*%
%TO.C,KB46*%
X133600000Y-173900000D03*
X125600000Y-173900000D03*
%TD*%
%TO.C,KB21*%
X124300000Y-154900000D03*
X116300000Y-154900000D03*
%TD*%
%TO.C,KB57*%
X276300000Y-154900000D03*
X268300000Y-154900000D03*
%TD*%
D37*
%TO.C,J3*%
X325120000Y-128905000D03*
D35*
X325120000Y-131445000D03*
X327660000Y-128905000D03*
X327660000Y-131445000D03*
X330200000Y-128905000D03*
X330200000Y-131445000D03*
X332740000Y-128905000D03*
X332740000Y-131445000D03*
X335280000Y-128905000D03*
X335280000Y-131445000D03*
X337820000Y-128905000D03*
X337820000Y-131445000D03*
X340360000Y-128905000D03*
X340360000Y-131445000D03*
X342900000Y-128905000D03*
X342900000Y-131445000D03*
X345440000Y-128905000D03*
X345440000Y-131445000D03*
X347980000Y-128905000D03*
X347980000Y-131445000D03*
X350520000Y-128905000D03*
X350520000Y-131445000D03*
X353060000Y-128905000D03*
X353060000Y-131445000D03*
%TD*%
D36*
%TO.C,KB30*%
X304600000Y-173900000D03*
X296600000Y-173900000D03*
%TD*%
%TO.C,KB15*%
X147912500Y-192912500D03*
X139912500Y-192912500D03*
%TD*%
%TO.C,KB24*%
X290112500Y-211912500D03*
X282112500Y-211912500D03*
%TD*%
%TO.C,KB37*%
X109912500Y-192912500D03*
X101912500Y-192912500D03*
%TD*%
M02*
